<svg width="517" height="940" viewBox="0 0 517 940" fill="none" xmlns="http://www.w3.org/2000/svg">
<path d="M253.394 728.04C200.805 726.856 151.837 705.266 115.488 667.243C79.1401 629.22 59.7768 579.329 60.9611 526.741C62.1454 474.152 83.7351 425.184 121.758 388.835C159.782 352.487 209.672 333.124 262.261 334.308C314.849 335.492 363.817 357.082 400.166 395.105C436.514 433.128 455.877 483.019 454.693 535.608C453.509 588.196 431.919 637.164 393.896 673.513C355.873 709.861 305.982 729.224 253.394 728.04ZM252.162 782.725C391.092 785.854 506.249 675.769 509.378 536.839C512.507 397.909 402.422 282.752 263.492 279.623C124.562 276.494 9.40488 386.579 6.27613 525.509C3.14739 664.439 113.232 779.596 252.162 782.725Z" fill="#3A3A3A"/>
<path d="M231.624 297.097L238.826 296.514C241.536 296.302 243.577 296.788 244.933 297.974C246.289 299.16 247.079 301.184 247.304 304.015L247.755 309.649C247.98 312.481 247.522 314.598 246.366 316.001C245.225 317.388 243.292 318.196 240.582 318.424L233.38 319.006L233.177 316.54L235.05 316.384L233.685 299.392L231.812 299.548L231.608 297.112L231.624 297.097ZM239.997 316.024C240.956 315.955 241.781 315.791 242.47 315.548C243.16 315.305 243.7 314.938 244.136 314.461C244.557 313.969 244.845 313.352 245.014 312.581C245.168 311.809 245.205 310.853 245.109 309.711L244.696 304.458C244.6 303.316 244.423 302.37 244.136 301.634C243.864 300.898 243.466 300.327 242.974 299.921C242.482 299.515 241.88 299.243 241.153 299.105C240.427 298.967 239.607 298.948 238.648 299.018L236.333 299.209L237.698 316.231L240.012 316.04L239.997 316.024Z" fill="#BABABA"/>
<path d="M252.871 295.722L266.182 295.824L266.157 298.271L255.475 298.197L255.417 305.476L265.902 305.56L265.892 308.007L255.407 307.938L255.349 315.277L266.213 315.355L266.189 317.801L252.695 317.71L252.855 295.737L252.871 295.722Z" fill="#BABABA"/>
<path d="M278.387 316.707C279.282 316.788 280.058 316.714 280.733 316.471C281.392 316.227 281.962 315.876 282.413 315.399C282.865 314.923 283.227 314.369 283.484 313.737C283.742 313.104 283.909 312.409 283.971 311.681L284.01 311.302L286.634 311.543L286.595 311.922C286.494 313.029 286.228 314.042 285.796 314.989C285.365 315.922 284.8 316.73 284.086 317.382C283.372 318.035 282.51 318.532 281.515 318.844C280.52 319.156 279.393 319.252 278.15 319.133C275.739 318.897 273.921 317.959 272.711 316.321C271.502 314.667 271.037 312.392 271.316 309.465L271.775 304.582C272.037 301.746 272.936 299.608 274.427 298.183C275.934 296.742 277.892 296.148 280.304 296.37C281.547 296.489 282.634 296.802 283.566 297.294C284.482 297.786 285.242 298.426 285.817 299.214C286.393 299.987 286.798 300.878 287.049 301.886C287.285 302.895 287.367 303.945 287.251 305.052L287.212 305.431L284.589 305.19L284.627 304.811C284.674 304.097 284.629 303.397 284.492 302.71C284.356 302.023 284.111 301.41 283.759 300.855C283.407 300.3 282.931 299.848 282.331 299.485C281.731 299.122 280.991 298.908 280.097 298.812C278.413 298.652 277.08 299.139 276.127 300.303C275.174 301.452 274.592 303.019 274.394 305.021L273.974 309.525C273.773 311.679 274.04 313.357 274.771 314.604C275.504 315.837 276.719 316.533 278.402 316.692L278.387 316.707Z" fill="#BABABA"/>
<path d="M354.306 339.405L354.652 339.565L363.648 320.755L366.023 321.888L356.549 341.72L351.783 339.44L355.049 317.902L354.703 317.742L345.708 336.552L343.332 335.42L352.822 315.587L357.573 317.867L354.306 339.421L354.306 339.405Z" fill="#BABABA"/>
<path d="M366.664 331.903C368.117 329.458 369.824 327.901 371.799 327.246C373.775 326.591 375.805 326.88 377.89 328.113C379.974 329.345 381.214 330.984 381.578 333.029C381.943 335.073 381.406 337.326 379.968 339.771L377.471 343.985C375.971 346.505 374.264 348.077 372.304 348.702C370.36 349.327 368.33 349.023 366.246 347.775C364.161 346.543 362.921 344.919 362.526 342.904C362.13 340.889 362.683 338.637 364.183 336.102L366.68 331.888L366.664 331.903ZM367.494 345.675C368.948 346.544 370.344 346.682 371.663 346.119C372.983 345.556 374.196 344.337 375.286 342.492L377.592 338.608C378.619 336.883 379.081 335.267 378.978 333.776C378.875 332.284 378.096 331.096 376.641 330.243C375.186 329.374 373.775 329.266 372.409 329.889C371.057 330.527 369.86 331.701 368.834 333.426L366.527 337.31C365.421 339.17 364.944 340.815 365.079 342.247C365.213 343.679 366.008 344.821 367.478 345.69L367.494 345.675Z" fill="#BABABA"/>
<path d="M387.819 334.658L390.122 336.306L382.628 356.594L382.927 356.813L399.754 343.225L402.057 344.873L384.183 359.106L380.055 356.141L387.819 334.658Z" fill="#BABABA"/>
<path d="M440.975 397.013C443.322 395.409 445.525 394.729 447.602 394.958C449.664 395.202 451.386 396.32 452.755 398.327C454.123 400.333 454.549 402.334 454.017 404.343C453.486 406.353 452.047 408.159 449.701 409.763L445.656 412.529C443.233 414.177 441.014 414.871 438.983 414.613C436.952 414.354 435.261 413.222 433.877 411.215C432.509 409.209 432.068 407.208 432.568 405.228C433.054 403.248 434.523 401.427 436.931 399.764L440.976 396.998L440.975 397.013ZM435.899 409.832C436.855 411.237 438.055 411.948 439.483 411.995C440.926 412.027 442.535 411.456 444.31 410.234L448.045 407.689C449.712 406.556 450.804 405.289 451.353 403.888C451.886 402.487 451.689 401.099 450.733 399.695C449.777 398.29 448.546 397.594 447.057 397.591C445.552 397.587 443.974 398.159 442.323 399.277L438.587 401.822C436.812 403.044 435.674 404.325 435.202 405.682C434.731 407.04 434.959 408.413 435.915 409.817L435.899 409.832Z" fill="#BABABA"/>
<path d="M445.945 426.046C446.383 426.831 446.886 427.435 447.47 427.843C448.053 428.251 448.655 428.508 449.306 428.614C449.957 428.72 450.611 428.704 451.283 428.552C451.956 428.4 452.615 428.156 453.246 427.791L453.569 427.6L454.855 429.909L454.531 430.099C453.562 430.64 452.566 430.997 451.558 431.187C450.536 431.362 449.564 431.355 448.611 431.136C447.659 430.917 446.771 430.502 445.95 429.86C445.128 429.219 444.403 428.351 443.79 427.259C442.606 425.135 442.348 423.107 443.015 421.177C443.681 419.247 445.3 417.566 447.855 416.134L452.134 413.738C454.612 412.35 456.872 411.854 458.915 412.28C460.957 412.706 462.554 413.973 463.753 416.082C464.367 417.175 464.738 418.247 464.851 419.283C464.965 420.319 464.866 421.304 464.557 422.225C464.248 423.145 463.742 423.984 463.056 424.759C462.37 425.534 461.55 426.184 460.58 426.725L460.257 426.915L458.971 424.606L459.295 424.416C459.911 424.05 460.452 423.622 460.935 423.116C461.418 422.61 461.795 422.056 462.036 421.454C462.278 420.851 462.384 420.2 462.339 419.5C462.294 418.8 462.052 418.065 461.614 417.28C460.781 415.802 459.629 414.986 458.127 414.861C456.641 414.721 455.005 415.155 453.265 416.134L449.325 418.34C447.447 419.392 446.204 420.58 445.597 421.889C445.006 423.198 445.111 424.583 445.944 426.061L445.945 426.046Z" fill="#BABABA"/>
<path d="M469.421 427.578L475.761 441.672L473.519 442.67L470.9 436.821L453.09 444.824L452.005 442.414L469.815 434.41L467.196 428.561L469.437 427.563L469.421 427.578Z" fill="#BABABA"/>
<path d="M486.687 519.99C487.403 519.946 488.015 519.762 488.539 519.439C489.063 519.117 489.482 518.701 489.797 518.206C490.113 517.697 490.354 517.125 490.49 516.489C490.641 515.854 490.686 515.187 490.626 514.501C490.579 513.892 490.47 513.328 490.269 512.791C490.068 512.255 489.82 511.793 489.495 511.376C489.17 510.973 488.782 510.66 488.346 510.438C487.895 510.215 487.396 510.128 486.833 510.161L486.65 510.156C486.041 510.219 485.536 510.375 485.135 510.654C484.718 510.934 484.39 511.337 484.12 511.847C483.85 512.358 483.638 512.991 483.5 513.733C483.362 514.475 483.235 515.353 483.168 516.34C482.979 518.661 482.423 520.396 481.515 521.561C480.592 522.71 479.301 523.35 477.642 523.48L477.261 523.502C476.318 523.572 475.454 523.461 474.639 523.199C473.84 522.923 473.12 522.497 472.51 521.905C471.9 521.314 471.401 520.558 471.026 519.638C470.652 518.717 470.417 517.648 470.324 516.415C470.218 515.015 470.338 513.756 470.667 512.654C470.995 511.552 471.503 510.606 472.174 509.846C472.845 509.071 473.649 508.465 474.586 508.015C475.538 507.566 476.578 507.3 477.719 507.22L478.663 507.15L478.847 509.783L478.101 509.842C476.183 509.982 474.771 510.603 473.894 511.739C473.003 512.858 472.634 514.37 472.759 516.242C472.874 517.871 473.319 519.066 474.107 519.844C474.879 520.621 475.875 520.963 477.062 520.883L477.244 520.887C478.386 520.791 479.233 520.309 479.785 519.409C480.337 518.525 480.673 517.119 480.807 515.192C480.878 514.069 481.022 513.069 481.271 512.148C481.504 511.241 481.856 510.459 482.297 509.8C482.737 509.141 483.296 508.622 483.958 508.227C484.62 507.846 485.431 507.621 486.36 507.551L486.74 507.529C487.592 507.472 488.395 507.597 489.133 507.902C489.871 508.208 490.514 508.663 491.093 509.254C491.673 509.844 492.112 510.583 492.457 511.458C492.802 512.332 493.008 513.294 493.091 514.359C493.185 515.593 493.084 516.7 492.788 517.696C492.507 518.693 492.077 519.549 491.53 520.251C490.981 520.969 490.316 521.516 489.531 521.924C488.747 522.332 487.921 522.556 487.054 522.613L485.745 522.705L485.561 520.071L486.687 519.99Z" fill="#BABABA"/>
<path d="M493.308 528.347L493.099 541.656L490.653 541.601L490.833 530.936L483.556 530.817L483.38 541.3L480.935 541.245L481.11 530.777L473.757 530.657L473.573 541.52L471.127 541.465L471.34 527.974L493.308 528.332L493.308 528.347Z" fill="#BABABA"/>
<path d="M479.553 549.983L470.562 549.051L470.834 546.428L492.698 548.699L491.884 556.507C491.767 557.629 491.502 558.596 491.089 559.392C490.676 560.188 490.175 560.846 489.571 561.334C488.968 561.822 488.306 562.187 487.557 562.383C486.807 562.594 486.046 562.653 485.242 562.574L484.302 562.477C483.514 562.398 482.759 562.168 482.068 561.818C481.361 561.468 480.765 560.968 480.277 560.349C479.79 559.731 479.426 558.993 479.187 558.121C478.949 557.25 478.895 556.276 479.011 555.169L479.553 549.983ZM481.994 550.236L481.49 555.103C481.181 558.014 482.285 559.604 484.787 559.858L485.348 559.917C486.455 560.033 487.373 559.765 488.132 559.113C488.876 558.461 489.341 557.408 489.496 555.922L490 551.054L482.01 550.221L481.994 550.236Z" fill="#BABABA"/>
<path d="M452.424 631.653L456.566 623.19L452.366 619.357L453.609 616.816L470.43 632.454L468.248 636.903L445.58 633.217L446.822 630.676L452.439 631.639L452.424 631.653ZM468.389 634.019L458.442 624.919L454.937 632.09L468.229 634.365L468.389 634.034L468.389 634.019Z" fill="#BABABA"/>
<path d="M461.966 648.616L449.491 641.086C447.977 640.17 446.602 639.82 445.395 640.067C444.189 640.298 443.168 641.111 442.332 642.49C441.495 643.87 441.253 645.156 441.607 646.334C441.96 647.512 442.894 648.567 444.423 649.483L456.899 657.013L455.54 659.277L443.065 651.747C440.876 650.421 439.559 648.841 439.099 647.007C438.654 645.173 439.032 643.252 440.232 641.242C441.447 639.233 442.964 638.006 444.814 637.546C446.648 637.086 448.675 637.526 450.848 638.852L463.323 646.382L461.965 648.647L461.966 648.616Z" fill="#BABABA"/>
<path d="M439.986 661.603L434.2 669.512L425.692 663.287L427.135 661.313L429.258 662.866L429.478 662.567C428.949 661.734 428.712 660.787 428.797 659.725C428.867 658.662 429.269 657.653 429.959 656.696C431.355 654.782 433.066 653.742 435.106 653.56C437.132 653.377 439.333 654.141 441.695 655.881L445.643 658.767C447.945 660.445 449.317 662.299 449.788 664.331C450.259 666.363 449.774 668.343 448.331 670.302C447.594 671.319 446.771 672.09 445.878 672.633C444.984 673.175 444.05 673.488 443.075 673.588C442.115 673.688 441.13 673.574 440.149 673.279C439.168 672.968 438.221 672.49 437.324 671.832L437.025 671.612L438.577 669.489L438.876 669.709C439.444 670.132 440.06 670.45 440.724 670.693C441.387 670.936 442.038 671.026 442.692 671.011C443.346 670.98 443.989 670.797 444.604 670.461C445.235 670.126 445.809 669.591 446.342 668.874C447.346 667.513 447.605 666.121 447.105 664.696C446.605 663.287 445.555 661.987 443.925 660.795L440.277 658.129C438.543 656.859 436.946 656.215 435.518 656.213C434.074 656.211 432.842 656.913 431.823 658.319C430.897 659.59 430.58 660.874 430.854 662.187C431.144 663.501 432.014 664.691 433.464 665.757L433.763 665.977L437.996 660.205L439.97 661.648L439.986 661.603Z" fill="#BABABA"/>
<path d="M374.893 717.645C373.629 715.748 373.121 713.988 373.385 712.368C373.65 710.748 374.67 709.327 376.46 708.136C378.25 706.93 379.992 706.483 381.703 706.795C383.398 707.107 384.893 708.205 386.157 710.103L387.098 711.507L384.907 712.977L383.966 711.573C383.201 710.431 382.291 709.696 381.234 709.399C380.177 709.102 379.046 709.35 377.827 710.173C376.608 710.997 375.995 711.91 375.972 712.928C375.949 713.946 376.319 715.033 377.099 716.175L384.304 726.931L386.187 725.666L387.554 727.703L381.922 731.482L380.554 729.445L382.113 728.401L374.908 717.646L374.893 717.645Z" fill="#BABABA"/>
<path d="M375.301 735.299L368.293 722.527C367.432 720.972 366.42 719.992 365.259 719.586C364.098 719.18 362.802 719.379 361.401 720.153C360.001 720.927 359.143 721.91 358.857 723.105C358.572 724.299 358.86 725.673 359.707 727.242L366.714 740.014L364.406 741.285L357.398 728.513C356.172 726.266 355.823 724.237 356.35 722.425C356.877 720.598 358.172 719.138 360.234 717.999C362.296 716.875 364.233 716.569 366.045 717.096C367.872 717.624 369.391 719.01 370.617 721.257L377.624 734.029L375.316 735.299L375.301 735.299Z" fill="#BABABA"/>
<path d="M358.736 744.029L356.326 745.084L348.476 727.202L337.947 731.813L336.964 729.572L349.903 723.891L358.736 744.014L358.736 744.029Z" fill="#BABABA"/>
<path d="M265.335 751.167C265.189 748.885 265.639 747.116 266.686 745.848C267.733 744.58 269.33 743.871 271.475 743.737C273.621 743.603 275.358 744.098 276.685 745.222C277.997 746.346 278.734 748.05 278.88 750.333L278.979 752.022L276.346 752.191L276.247 750.501C276.157 749.116 275.74 748.043 274.983 747.251C274.226 746.459 273.109 746.114 271.648 746.203C270.187 746.292 269.188 746.771 268.652 747.655C268.115 748.525 267.892 749.66 267.983 751.03L268.786 763.936L271.039 763.789L271.197 766.239L264.424 766.664L264.266 764.214L266.138 764.104L265.335 751.198L265.335 751.167Z" fill="#BABABA"/>
<path d="M256.734 766.643L257.108 752.076C257.148 750.299 256.768 748.938 255.968 748.008C255.169 747.078 253.964 746.595 252.339 746.543C250.729 746.507 249.503 746.92 248.647 747.813C247.791 748.705 247.351 750.033 247.311 751.81L246.938 766.376L244.294 766.317L244.668 751.75C244.726 749.198 245.453 747.27 246.82 745.963C248.187 744.656 250.055 744.03 252.394 744.097C254.733 744.15 256.556 744.875 257.862 746.242C259.169 747.609 259.793 749.583 259.721 752.135L259.347 766.701L256.704 766.642L256.734 766.643Z" fill="#BABABA"/>
<path d="M229.313 743.897L228.934 743.858L226.598 764.581L223.975 764.279L226.443 742.434L231.688 743.024L235.643 764.451L236.022 764.489L238.359 743.766L240.981 744.069L238.513 765.913L233.268 765.324L229.313 743.897Z" fill="#BABABA"/>
<path d="M159.673 745.368L155.179 743.124L161.875 723.168L161.544 722.994L149.574 740.308L145.08 738.064L154.93 718.407L157.124 719.505L147.784 738.14L148.114 738.315L160.085 721L164.353 723.133L157.657 743.089L157.988 743.264L167.328 724.628L169.523 725.727L159.672 745.384L159.673 745.368Z" fill="#BABABA"/>
<path d="M139.015 715.146L147.035 720.083L151.27 716.273L153.668 717.755L136.471 732.961L132.244 730.358L138.124 708.15L140.538 709.633L139.031 715.116L139.015 715.146ZM135.122 730.803L145.142 721.788L138.352 717.608L134.791 730.613L135.106 730.803L135.122 730.803Z" fill="#BABABA"/>
<path d="M126.834 709.4L127.282 709.744L124.273 725.285L121.911 723.514L124.575 710.534L124.276 710.315L112.599 716.572L110.238 714.801L124.278 707.488L124.727 707.833L129.349 701.645L131.457 703.227L126.834 709.415L126.834 709.4Z" fill="#BABABA"/>
<path d="M72.1084 647.223L77.2809 655.091L82.7287 653.435L84.2865 655.796L62.2552 662.291L59.537 658.141L74.2506 640.509L75.8084 642.869L72.124 647.209L72.1084 647.223ZM61.9322 659.761L74.8324 655.841L70.4534 649.177L61.7264 659.452L61.9322 659.761Z" fill="#BABABA"/>
<path d="M63.7276 640.104L71.6964 635.831L72.9511 638.154L53.5829 648.539L49.8786 641.616C49.3388 640.616 49.0254 639.682 48.9089 638.783C48.792 637.899 48.8561 637.079 49.0706 636.324C49.2849 635.585 49.6496 634.909 50.1494 634.312C50.6492 633.716 51.2526 633.243 51.9602 632.864L52.7911 632.411C53.4987 632.032 54.2333 631.805 55.0108 631.701C55.7882 631.597 56.5616 631.675 57.3163 631.905C58.071 632.135 58.7913 632.546 59.477 633.139C60.1631 633.717 60.7685 634.506 61.2786 635.475L63.7438 640.059L63.7276 640.104ZM61.5736 641.272L59.2544 636.949C57.8688 634.364 56.0759 633.671 53.8608 634.852L53.3685 635.114C52.384 635.639 51.7745 636.385 51.5099 637.337C51.2605 638.289 51.4627 639.433 52.178 640.741L54.4971 645.064L61.5736 641.272Z" fill="#BABABA"/>
<path d="M58.8537 608.853L59.8933 611.278L53.1412 614.166C52.6348 614.382 52.3093 614.664 52.1343 615.009C51.9594 615.355 52.0099 615.812 52.2551 616.395L54.9554 622.687L63.2727 619.136L64.3123 621.56L44.1019 630.209L41.0119 622.996C40.5643 621.953 40.3276 620.99 40.3022 620.092C40.2768 619.195 40.4013 618.393 40.6763 617.654C40.9661 616.931 41.3754 616.302 41.9349 615.752C42.4944 615.203 43.1272 614.776 43.8635 614.473L44.723 614.098C45.4749 613.78 46.3134 613.662 47.2383 613.759C48.1632 613.856 49.0208 614.24 49.7953 614.941L50.1482 614.797C49.9948 614.186 50.0378 613.625 50.2614 613.143C50.485 612.662 50.9344 612.277 51.6096 611.988L58.8834 608.884L58.8537 608.853ZM52.6847 623.639L50.765 619.127C50.1726 617.762 49.4478 616.879 48.5756 616.464C47.7035 616.049 46.6995 616.088 45.5638 616.579L45.0422 616.795C44.0142 617.228 43.3453 617.912 43.0051 618.846C42.6649 619.781 42.7911 620.924 43.3683 622.289L45.2884 626.786L52.685 623.624L52.6847 623.639Z" fill="#BABABA"/>
<path d="M23.1747 551.909L22.9078 546.887L43.5771 542.839L43.5553 542.459L22.5779 540.618L22.311 535.597L44.2527 534.435L44.3799 536.884L23.564 537.996L23.5858 538.377L44.5632 540.217L44.8207 544.98L24.1515 549.028L24.1733 549.408L44.9892 548.297L45.1164 550.746L23.1747 551.909Z" fill="#BABABA"/>
<path d="M39.2211 518.941L38.9026 528.357L44.3032 530.15L44.2092 532.975L22.4756 525.571L22.6479 520.62L44.8482 514.722L44.7542 517.546L39.2359 518.957L39.2211 518.941ZM23.6817 523.303L36.4741 527.542L36.7449 519.57L23.6903 522.923L23.6817 523.303Z" fill="#BABABA"/>
<path d="M46.8132 498.336L46.4958 500.958L39.2057 500.064C38.6602 499.991 38.2329 500.073 37.9087 500.293C37.5846 500.514 37.3931 500.92 37.318 501.557L36.4811 508.347L45.4536 509.445L45.1362 512.067L23.3263 509.403L24.2768 501.613C24.4085 500.491 24.6883 499.54 25.1165 498.744C25.5448 497.948 26.0608 497.306 26.6641 496.833C27.2678 496.346 27.9593 496.012 28.7084 495.816C29.4575 495.62 30.2336 495.576 31.0218 495.67L31.9615 495.782C32.7649 495.877 33.5479 496.198 34.3107 496.747C35.0734 497.296 35.6035 498.053 35.9306 499.048L36.3097 499.087C36.4905 498.483 36.7897 498.019 37.2374 497.71C37.6699 497.4 38.265 497.292 38.9925 497.385L46.8433 498.352L46.8132 498.336ZM34.0413 508.033L34.6372 503.168C34.8223 501.698 34.6353 500.554 34.0907 499.767C33.5461 498.979 32.6601 498.503 31.4324 498.354L30.8718 498.281C29.7653 498.15 28.8325 498.402 28.0738 499.023C27.3148 499.66 26.8352 500.713 26.6653 502.183L26.0694 507.048L34.0416 508.018L34.0413 508.033Z" fill="#BABABA"/>
<path d="M45.2275 429.728L51.3798 417.708L53.5585 418.821L48.5988 428.497L55.0743 431.819L59.9387 422.324L62.1173 423.437L57.2529 432.932L65.9672 437.399L64.7593 439.743L45.1971 429.727L45.2275 429.728Z" fill="#BABABA"/>
<path d="M54.3391 412.5L61.372 401.199L63.4553 402.493L57.8103 411.56L64.0004 415.408L69.5506 406.505L71.6339 407.798L66.0838 416.701L72.3188 420.58L78.0585 411.363L80.1418 412.656L72.9989 424.121L54.3391 412.5Z" fill="#BABABA"/>
<path d="M80.4486 407.815L81.5769 406.306L67.9326 396.029L66.8043 397.538L64.8466 396.066L70.1889 388.967C70.8157 388.13 71.4991 387.476 72.2088 387.006C72.9185 386.536 73.6548 386.233 74.3874 386.098C75.12 385.962 75.8491 385.979 76.5893 386.178C77.3143 386.376 78.0059 386.711 78.6633 387.212L78.9623 387.432C79.4406 387.792 79.8263 388.211 80.1202 388.658C80.414 389.106 80.6157 389.597 80.726 390.101C80.8362 390.605 80.8854 391.123 80.8278 391.653C80.7855 392.184 80.6675 392.698 80.4584 393.21L80.7574 393.43C81.6234 392.765 82.6042 392.408 83.6847 392.341C84.7653 392.274 85.7917 392.586 86.7482 393.306L87.0469 393.541C87.7046 394.027 88.2236 394.601 88.6042 395.248C89 395.895 89.2273 396.599 89.3016 397.346C89.376 398.092 89.2975 398.881 89.0356 399.711C88.7893 400.526 88.3451 401.352 87.7184 402.189L82.376 409.287L80.4183 407.815L80.4486 407.815ZM83.1594 404.198L85.6661 400.866C86.4026 399.879 86.7593 398.884 86.736 397.896C86.7127 396.907 86.2603 396.077 85.3933 395.434L85.2437 395.324C84.347 394.65 83.4104 394.401 82.4334 394.592C81.4716 394.783 80.6073 395.372 79.8552 396.373L77.286 399.78L83.1594 404.198ZM75.3282 398.308L77.8975 394.9C78.6495 393.899 78.9911 392.904 78.9067 391.929C78.8222 390.955 78.3394 390.123 77.4427 389.449L77.2932 389.34C76.4414 388.697 75.5341 388.494 74.5709 388.746C73.6078 388.998 72.7579 389.617 72.0214 390.604L69.5147 393.937L75.3279 398.323L75.3282 398.308Z" fill="#BABABA"/>
<path d="M143.243 343.178C144.492 345.091 144.969 346.865 144.69 348.47C144.41 350.089 143.36 351.479 141.555 352.67C139.751 353.845 137.994 354.261 136.299 353.934C134.604 353.607 133.125 352.48 131.876 350.567L130.95 349.148L133.156 347.708L134.082 349.127C134.831 350.284 135.741 351.019 136.798 351.331C137.855 351.644 138.985 351.396 140.219 350.603C141.453 349.81 142.081 348.897 142.119 347.88C142.142 346.862 141.787 345.775 141.038 344.603L133.987 333.76L132.09 334.994L130.753 332.942L136.445 329.241L137.781 331.292L136.208 332.321L143.259 343.164L143.243 343.178Z" fill="#BABABA"/>
<path d="M159.311 335.577L150.99 339.995L152.141 345.568L149.649 346.895L145.217 324.363L149.601 322.03L165.8 338.322L163.308 339.649L159.326 335.578L159.311 335.577ZM147.772 324.284L150.484 337.491L157.529 333.744L148.11 324.109L147.772 324.284Z" fill="#BABABA"/>
<path d="M178.134 331.85L178.487 331.706L170.363 312.511L172.787 311.486L181.344 331.725L176.48 333.774L162.525 317.046L162.172 317.19L170.296 336.385L167.872 337.41L159.316 317.171L164.179 315.122L178.134 331.85Z" fill="#BABABA"/>
<path d="M259.199 427.256C316.506 428.013 362.503 475.239 361.746 532.547C360.99 589.854 313.763 635.85 256.456 635.094C199.149 634.338 153.152 587.111 153.909 529.804C154.665 472.496 201.892 426.5 259.199 427.256ZM259.921 372.562C172.319 371.406 100.371 441.48 99.2145 529.082C98.0584 616.684 168.132 688.632 255.734 689.788C343.336 690.944 415.284 620.87 416.44 533.269C417.597 445.667 347.523 373.719 259.921 372.562Z" fill="#3A3A3A"/>
<path d="M328.774 647.599C329.176 648.212 329.656 648.675 330.214 648.971C330.773 649.267 331.363 649.442 331.97 649.48C332.593 649.504 333.217 649.421 333.873 649.232C334.514 649.027 335.141 648.747 335.739 648.345C336.26 648.002 336.706 647.598 337.092 647.147C337.477 646.696 337.757 646.229 337.961 645.73C338.165 645.231 338.248 644.731 338.224 644.214C338.201 643.697 338.025 643.208 337.697 642.718L337.593 642.549C337.25 642.028 336.845 641.658 336.377 641.424C335.909 641.19 335.378 641.092 334.786 641.114C334.193 641.137 333.522 641.265 332.774 641.513C332.027 641.762 331.186 642.1 330.254 642.544C328.067 643.548 326.223 643.949 324.707 643.716C323.206 643.484 321.971 642.647 321.002 641.206L320.794 640.884C320.257 640.072 319.904 639.231 319.733 638.378C319.561 637.525 319.588 636.659 319.812 635.811C320.036 634.963 320.472 634.133 321.106 633.321C321.74 632.509 322.586 631.745 323.643 631.045C324.854 630.24 326.032 629.708 327.205 629.45C328.363 629.177 329.473 629.161 330.504 629.357C331.534 629.568 332.501 629.976 333.374 630.596C334.248 631.215 335.027 632.031 335.683 633.012L336.219 633.824L333.95 635.329L333.518 634.685C332.415 633.029 331.136 632.085 329.665 631.853C328.209 631.637 326.654 632.057 325.044 633.13C323.634 634.068 322.785 635.075 322.482 636.18C322.178 637.27 322.377 638.337 323.063 639.364L323.167 639.532C323.822 640.529 324.697 641.042 325.775 641.071C326.854 641.101 328.287 640.694 330.092 639.837C331.132 639.334 332.124 638.952 333.055 638.706C334 638.46 334.883 638.365 335.702 638.437C336.522 638.508 337.279 638.731 337.957 639.135C338.636 639.539 339.251 640.14 339.787 640.952L339.995 641.274C340.487 642.01 340.781 642.789 340.892 643.611C340.987 644.433 340.916 645.237 340.677 646.07C340.423 646.887 340.002 647.671 339.4 648.423C338.797 649.175 338.028 649.864 337.108 650.475C336.051 651.175 334.996 651.663 333.944 651.907C332.908 652.152 331.919 652.215 331.009 652.096C330.084 651.962 329.252 651.648 328.499 651.151C327.746 650.655 327.116 650.024 326.609 649.273L325.849 648.138L328.118 646.633L328.774 647.614L328.774 647.599Z" fill="#BABABA"/>
<path d="M321.786 658.949L315.509 645.251C314.74 643.584 313.767 642.493 312.604 641.991C311.44 641.489 310.087 641.593 308.573 642.287C307.06 642.981 306.105 643.926 305.724 645.152C305.343 646.363 305.522 647.808 306.29 649.475L312.567 663.173L310.091 664.31L303.813 650.612C302.705 648.212 302.505 646.097 303.183 644.252C303.861 642.423 305.308 640.998 307.509 639.979C309.711 638.974 311.734 638.804 313.579 639.481C315.409 640.159 316.877 641.713 317.985 644.113L324.263 657.811L321.786 658.949Z" fill="#BABABA"/>
<path d="M285.992 649.207L285.611 649.308L291.4 670.081L288.777 670.806L282.684 648.905L287.946 647.439L300.048 666.457L300.43 666.355L294.641 645.583L297.264 644.857L303.357 666.759L298.095 668.224L285.992 649.207Z" fill="#BABABA"/>
<path d="M210.205 658.95C209.983 659.646 209.914 660.314 210.012 660.938C210.11 661.562 210.346 662.128 210.704 662.634C211.062 663.14 211.512 663.587 212.084 663.974C212.641 664.361 213.26 664.674 213.941 664.895C214.531 665.085 215.122 665.2 215.715 665.223C216.292 665.23 216.855 665.177 217.373 665.032C217.892 664.887 218.336 664.634 218.72 664.29C219.105 663.945 219.384 663.508 219.574 662.949L219.637 662.767C219.827 662.177 219.88 661.615 219.765 661.113C219.65 660.61 219.413 660.135 219.024 659.674C218.635 659.213 218.124 658.781 217.462 658.347C216.799 657.913 216.014 657.477 215.094 657.009C212.95 655.917 211.492 654.712 210.75 653.381C209.993 652.049 209.89 650.573 210.429 648.924L210.555 648.546C210.856 647.623 211.292 646.823 211.863 646.162C212.434 645.501 213.125 644.994 213.935 644.64C214.745 644.286 215.659 644.115 216.692 644.114C217.71 644.112 218.847 644.309 220.058 644.705C221.434 645.164 222.597 645.757 223.514 646.498C224.431 647.24 225.149 648.1 225.623 649.033C226.097 649.982 226.372 650.988 226.419 652.068C226.48 653.148 226.314 654.255 225.949 655.389L225.648 656.312L223.061 655.458L223.299 654.716C223.917 652.825 223.862 651.229 223.134 649.943C222.406 648.657 221.112 647.713 219.266 647.111C217.662 646.588 216.341 646.54 215.287 646.982C214.248 647.425 213.523 648.236 213.143 649.401L213.079 649.582C212.715 650.717 212.838 651.721 213.481 652.581C214.122 653.455 215.327 654.322 217.123 655.212C218.165 655.712 219.07 656.256 219.852 656.844C220.634 657.431 221.249 658.063 221.711 658.752C222.173 659.442 222.452 660.175 222.563 660.967C222.674 661.759 222.572 662.608 222.271 663.531L222.144 663.909C221.875 664.757 221.44 665.465 220.855 666.05C220.27 666.635 219.595 667.082 218.786 667.39C217.992 667.699 217.108 667.855 216.151 667.842C215.179 667.829 214.178 667.664 213.134 667.316C211.924 666.92 210.897 666.39 210.055 665.725C209.213 665.061 208.554 664.323 208.094 663.526C207.633 662.73 207.356 661.876 207.277 660.963C207.197 660.065 207.3 659.17 207.585 658.308L208.013 657.007L210.6 657.861L210.235 658.981L210.205 658.95Z" fill="#BABABA"/>
<path d="M195.844 640.693L204.507 645.153L208.575 640.892L211.171 642.233L194.626 659.276L190.068 656.922L194.373 633.562L196.969 634.903L195.844 640.678L195.844 640.693ZM193.043 657.158L202.674 647.074L195.338 643.3L192.696 656.987L193.043 657.174L193.043 657.158Z" fill="#BABABA"/>
<path d="M181.892 652.406L168.854 643.178L170.325 641.115L175.73 644.94L187.405 628.455L189.633 630.034L177.958 646.519L183.363 650.344L181.892 652.406Z" fill="#BABABA"/>
<path d="M127.009 588.85L121.984 575.822L124.351 574.911L128.392 585.388L135.417 582.685L131.451 572.376L133.818 571.465L137.785 581.774L147.239 578.13L148.223 580.681L127.009 588.865L127.009 588.85Z" fill="#BABABA"/>
<path d="M139.009 550.032L139.597 552.699L132.175 554.334C131.626 554.448 131.228 554.671 130.996 554.987C130.749 555.302 130.712 555.788 130.841 556.413L132.36 563.332L141.489 561.325L142.076 563.992L119.872 568.88L118.123 560.956C117.864 559.813 117.817 558.779 117.951 557.869C118.084 556.959 118.384 556.157 118.803 555.464C119.223 554.77 119.777 554.215 120.436 553.768C121.096 553.321 121.844 553.012 122.637 552.84L123.582 552.625C124.405 552.438 125.285 552.495 126.209 552.766C127.132 553.036 127.915 553.609 128.572 554.453L128.953 554.367C128.916 553.713 129.06 553.153 129.385 552.716C129.71 552.265 130.246 551.968 130.978 551.795L138.978 550.032L139.009 550.032ZM129.891 563.892L128.802 558.939C128.472 557.43 127.908 556.389 127.095 555.801C126.283 555.213 125.267 555.063 124.017 555.335L123.438 555.464C122.31 555.708 121.497 556.274 120.969 557.149C120.441 558.023 120.349 559.222 120.679 560.731L121.768 565.684L129.891 563.892Z" fill="#BABABA"/>
<path d="M115.79 547.749L114.855 533.362L117.38 533.198L117.759 539.023L135.386 537.873L135.007 532.033L137.532 531.868L138.466 546.256L135.942 546.42L135.563 540.58L117.936 541.73L118.315 547.57L115.79 547.734L115.79 547.749Z" fill="#BABABA"/>
<path d="M130.078 466.794L138.056 452.949L140.258 454.209L136.946 459.955L154.455 470.048L153.086 472.416L135.577 462.323L132.265 468.068L130.063 466.809L130.078 466.794Z" fill="#BABABA"/>
<path d="M141.867 447.455L143.582 445.335L151.415 451.653L157.487 444.12L149.653 437.802L151.368 435.682L169.064 449.956L167.35 452.076L159.471 445.711L153.4 453.244L161.279 459.609L159.564 461.729L141.867 447.455Z" fill="#BABABA"/>
<path d="M158.344 428.601L168.439 439.782C169.666 441.15 170.918 441.896 172.193 442.019C173.452 442.142 174.705 441.657 175.95 440.534C177.181 439.411 177.804 438.219 177.806 436.942C177.823 435.666 177.202 434.351 175.959 432.982L165.865 421.787L167.895 419.96L177.989 431.14C179.756 433.108 180.596 435.064 180.495 437.023C180.393 438.982 179.442 440.778 177.643 442.395C175.844 444.013 173.965 444.778 172.006 444.676C170.047 444.574 168.191 443.547 166.409 441.578L156.315 430.383L158.345 428.556L158.344 428.601Z" fill="#BABABA"/>
<path d="M247.481 411.316L242.563 412.041L237.34 391.018L236.959 391.073L238.011 412.71L233.093 413.436L227.505 391.283L229.941 390.92L235.241 411.929L235.621 411.873L234.509 390.236L239.457 389.511L244.619 410.549L245 410.493L244.009 388.841L246.445 388.479L247.481 411.301L247.481 411.316Z" fill="#BABABA"/>
<path d="M252.785 388.288L266.549 388.47L266.516 391.007L255.471 390.861L255.371 398.382L266.219 398.525L266.186 401.062L255.338 400.919L255.238 408.515L266.48 408.664L266.447 411.201L252.485 411.017L252.8 388.273L252.785 388.288Z" fill="#BABABA"/>
<path d="M273.927 389.054L281.279 390.337C284.054 390.814 285.97 391.827 287.014 393.375C288.072 394.924 288.332 397.146 287.837 400.042L286.834 405.803C286.325 408.699 285.326 410.706 283.822 411.811C282.319 412.916 280.172 413.222 277.398 412.744L270.03 411.462L270.473 408.93L272.399 409.259L275.409 391.885L273.483 391.556L273.911 389.054L273.927 389.054ZM277.447 410.162C278.432 410.327 279.298 410.384 280.043 410.318C280.789 410.251 281.445 410.032 281.982 409.644C282.534 409.272 282.982 408.715 283.341 407.991C283.7 407.266 283.986 406.312 284.184 405.13L285.121 399.763C285.319 398.596 285.378 397.593 285.282 396.787C285.186 395.98 284.952 395.308 284.564 394.772C284.176 394.235 283.635 393.802 282.955 393.489C282.275 393.176 281.443 392.937 280.457 392.757L278.092 392.346L275.067 409.75L277.432 410.162L277.447 410.162Z" fill="#BABABA"/>
<path d="M349.673 421.538L361.32 432.48L359.594 434.326L354.76 429.795L340.936 444.519L338.955 442.655L352.779 427.93L347.946 423.399L349.688 421.553L349.673 421.538Z" fill="#BABABA"/>
<path d="M367.427 439.506L355.528 448.755C354.07 449.89 353.234 451.08 353.019 452.338C352.805 453.597 353.199 454.878 354.23 456.199C355.246 457.519 356.391 458.218 357.666 458.326C358.926 458.418 360.301 457.905 361.744 456.769L373.642 447.52L375.316 449.669L363.417 458.918C361.329 460.547 359.315 461.235 357.373 460.981C355.431 460.743 353.713 459.656 352.219 457.752C350.724 455.848 350.112 453.91 350.35 451.969C350.588 450.027 351.751 448.249 353.839 446.62L365.738 437.371L367.412 439.521L367.427 439.506Z" fill="#BABABA"/>
<path d="M379.382 455.938L386.06 467.985L383.841 469.216L378.483 459.557L371.901 463.209L377.17 472.699L374.95 473.931L369.681 464.456L363.037 468.137L368.484 477.964L366.265 479.196L359.482 466.98L379.366 455.953L379.382 455.938Z" fill="#BABABA"/>
<path d="M400.834 534.523L400.401 539.699L378.655 540.947L378.619 541.342L399.859 546.181L399.426 551.357L376.78 549.462L376.995 546.943L398.489 548.731L398.524 548.351L377.284 543.512L377.698 538.594L399.444 537.347L399.48 536.952L377.987 535.164L378.202 532.644L400.849 534.539L400.834 534.523Z" fill="#BABABA"/>
<path d="M389.766 555.652C392.628 556.358 394.679 557.586 395.917 559.349C397.155 561.098 397.477 563.199 396.867 565.638C396.273 568.076 395.004 569.792 393.092 570.77C391.179 571.747 388.792 571.883 385.929 571.176L381.007 569.957C378.068 569.234 375.988 567.991 374.795 566.243C373.603 564.495 373.296 562.409 373.906 559.971C374.515 557.532 375.738 555.816 377.62 554.838C379.487 553.845 381.905 553.725 384.843 554.447L389.766 555.667L389.766 555.652ZM376.375 560.566C375.957 562.262 376.227 563.694 377.184 564.831C378.142 565.968 379.696 566.809 381.862 567.339L386.406 568.463C388.42 568.96 390.153 568.938 391.603 568.395C393.054 567.852 393.981 566.724 394.414 565.028C394.846 563.332 394.531 561.899 393.497 560.746C392.464 559.593 390.941 558.752 388.926 558.254L384.382 557.131C382.216 556.601 380.454 556.608 379.063 557.167C377.688 557.726 376.792 558.869 376.375 560.566Z" fill="#BABABA"/>
<path d="M367.758 582.546L367.601 582.908L387.472 591.3L386.406 593.809L365.462 584.962L367.58 579.93L389.992 582.277L390.149 581.914L370.278 573.523L371.344 571.014L392.288 579.861L390.171 584.893L367.758 582.546Z" fill="#BABABA"/>
<g filter="url(#filter0_d_49_41)">
<path d="M355.763 447.225C328.743 314.964 340.637 246.724 346.372 156.35C348.845 117.467 367.536 2 367.536 2L301.223 50.5322C301.223 50.5322 298.523 85.6836 296.126 136.886C296.035 138.949 295.928 141.043 295.837 143.167H224.063C223.972 141.043 223.881 138.949 223.775 136.886C221.393 85.6988 218.677 50.5322 218.677 50.5322L152.365 2C152.365 2 171.07 117.467 173.528 156.35C179.248 246.724 191.157 314.964 164.137 447.225C139.105 569.762 25.7468 883.591 8.70972 930.469H112.465C122.478 883.818 189.094 573.752 209.787 486.215C210.637 482.665 211.395 479.479 212.078 476.688C212.958 473.077 213.792 469.299 214.581 465.4H305.304C306.093 469.314 306.927 473.092 307.807 476.688C308.49 479.479 309.249 482.665 310.098 486.215C330.791 573.767 397.408 883.833 407.421 930.469H511.175C494.138 883.591 380.795 569.762 355.763 447.225ZM292.56 287.322C292.606 301.234 292.803 315.131 293.152 328.861H226.748C227.082 315.131 227.279 301.234 227.34 287.322C227.34 286.609 227.34 285.881 227.34 285.168H292.576C292.576 285.881 292.576 286.609 292.576 287.322H292.56ZM295.716 386.769C296.535 398.845 297.552 410.511 298.75 421.617H221.12C222.333 410.511 223.335 398.845 224.154 386.769C224.351 383.886 224.518 380.943 224.7 378.015H295.17C295.352 380.943 295.519 383.886 295.716 386.769ZM226.961 236.014C226.703 221.07 226.339 206.43 225.914 192.321H293.971C293.531 206.43 293.167 221.07 292.924 236.014H226.961Z" fill="black"/>
<path d="M355.763 447.225C328.743 314.964 340.637 246.724 346.372 156.35C348.845 117.467 367.536 2 367.536 2L301.223 50.5322C301.223 50.5322 298.523 85.6836 296.126 136.886C296.035 138.949 295.928 141.043 295.837 143.167H224.063C223.972 141.043 223.881 138.949 223.775 136.886C221.393 85.6988 218.677 50.5322 218.677 50.5322L152.365 2C152.365 2 171.07 117.467 173.528 156.35C179.248 246.724 191.157 314.964 164.137 447.225C139.105 569.762 25.7468 883.591 8.70972 930.469H112.465C122.478 883.818 189.094 573.752 209.787 486.215C210.637 482.665 211.395 479.479 212.078 476.688C212.958 473.077 213.792 469.299 214.581 465.4H305.304C306.093 469.314 306.927 473.092 307.807 476.688C308.49 479.479 309.249 482.665 310.098 486.215C330.791 573.767 397.408 883.833 407.421 930.469H511.175C494.138 883.591 380.795 569.762 355.763 447.225ZM292.56 287.322C292.606 301.234 292.803 315.131 293.152 328.861H226.748C227.082 315.131 227.279 301.234 227.34 287.322C227.34 286.609 227.34 285.881 227.34 285.168H292.576C292.576 285.881 292.576 286.609 292.576 287.322H292.56ZM295.716 386.769C296.535 398.845 297.552 410.511 298.75 421.617H221.12C222.333 410.511 223.335 398.845 224.154 386.769C224.351 383.886 224.518 380.943 224.7 378.015H295.17C295.352 380.943 295.519 383.886 295.716 386.769ZM226.961 236.014C226.703 221.07 226.339 206.43 225.914 192.321H293.971C293.531 206.43 293.167 221.07 292.924 236.014H226.961Z" stroke="#A50C00" stroke-width="1.51711" stroke-miterlimit="10"/>
</g>
<defs>
<filter id="filter0_d_49_41" x="3.35943" y="0.295532" width="513.166" height="939.467" filterUnits="userSpaceOnUse" color-interpolation-filters="sRGB">
<feFlood flood-opacity="0" result="BackgroundImageFix"/>
<feColorMatrix in="SourceAlpha" type="matrix" values="0 0 0 0 0 0 0 0 0 0 0 0 0 0 0 0 0 0 127 0" result="hardAlpha"/>
<feOffset dy="4.26753"/>
<feGaussianBlur stdDeviation="2.13376"/>
<feComposite in2="hardAlpha" operator="out"/>
<feColorMatrix type="matrix" values="0 0 0 0 1 0 0 0 0 0 0 0 0 0 0 0 0 0 0.25 0"/>
<feBlend mode="normal" in2="BackgroundImageFix" result="effect1_dropShadow_49_41"/>
<feBlend mode="normal" in="SourceGraphic" in2="effect1_dropShadow_49_41" result="shape"/>
</filter>
</defs>
</svg>
