<svg width="24" height="24" viewBox="0 0 24 24" fill="none" xmlns="http://www.w3.org/2000/svg">
  <path fill-rule="evenodd" clip-rule="evenodd" d="M12 7.38462C9.41538 7.38462 7.38462 9.41538 7.38462 12C7.38462 14.5846 9.41538 16.6154 12 16.6154C14.5846 16.6154 16.6154 14.5846 16.6154 12C16.6154 9.41538 14.5846 7.38462 12 7.38462ZM12 15C10.3431 15 9 13.6569 9 12C9 10.3431 10.3431 9 12 9C13.6569 9 15 10.3431 15 12C15 13.6569 13.6569 15 12 15Z" fill="#8b8b8b"/>
  <path fill-rule="evenodd" clip-rule="evenodd" d="M16.8462 6.46154C16.8462 7.07692 17.3077 7.53846 17.9231 7.53846C18.5385 7.53846 19 7.07692 19 6.46154C19 5.84615 18.5385 5.38462 17.9231 5.38462C17.3077 5.38462 16.8462 5.84615 16.8462 6.46154Z" fill="#8b8b8b"/>
  <path fill-rule="evenodd" clip-rule="evenodd" d="M7.38462 2H16.6154C19.5846 2 22 4.41538 22 7.38462V16.6154C22 19.5846 19.5846 22 16.6154 22H7.38462C4.41538 22 2 19.5846 2 16.6154V7.38462C2 4.41538 4.41538 2 7.38462 2ZM16.6154 20.3077C18.6538 20.3077 20.3077 18.6538 20.3077 16.6154V7.38462C20.3077 5.34615 18.6538 3.69231 16.6154 3.69231H7.38462C5.34615 3.69231 3.69231 5.34615 3.69231 7.38462V16.6154C3.69231 18.6538 5.34615 20.3077 7.38462 20.3077H16.6154Z" fill="#8b8b8b"/>
</svg> 