<svg width="955" height="955" viewBox="0 0 955 955" fill="none" xmlns="http://www.w3.org/2000/svg">
<path d="M719.44 317.862C762.036 382.521 776.905 459.916 761.314 535.761C745.711 611.614 701.505 676.835 636.833 719.44C572.161 762.044 494.779 776.905 418.934 761.314C343.08 745.711 277.86 701.505 235.255 636.833C192.65 572.161 177.79 494.779 193.38 418.934C208.984 343.08 253.19 277.86 317.862 235.255C382.534 192.65 459.916 177.79 535.761 193.38C611.614 208.984 676.835 253.19 719.44 317.862ZM765.117 287.77C660.415 128.837 446.704 84.8751 287.77 189.577C128.837 294.279 84.8751 507.991 189.577 666.924C294.279 825.858 507.991 869.819 666.924 765.117C825.858 660.415 869.82 446.703 765.117 287.77Z" fill="#3A3A3A"/>
<path d="M515.553 162.261L516.059 158.307L524.475 154.346L524.528 153.929L511.044 152.186L511.391 149.537L527.331 151.609L526.763 155.968L518.347 159.929L518.294 160.346L519.65 160.527C520.56 160.637 521.414 160.911 522.22 161.308C523.015 161.712 523.707 162.239 524.285 162.895C524.863 163.551 525.289 164.308 525.579 165.19C525.869 166.073 525.94 167.064 525.803 168.154L525.719 168.773C525.587 169.788 525.254 170.718 524.731 171.553C524.208 172.389 523.538 173.085 522.734 173.633C521.91 174.176 521.001 174.592 519.963 174.84C518.925 175.087 517.829 175.136 516.676 174.986C515.341 174.81 514.163 174.458 513.146 173.909C512.129 173.36 511.302 172.685 510.637 171.868C509.98 171.064 509.508 170.155 509.249 169.125C508.976 168.104 508.906 167.059 509.055 165.96L509.301 164.124L512.165 164.493L511.949 166.127C511.839 166.982 511.886 167.77 512.08 168.479C512.274 169.188 512.608 169.806 513.047 170.335C513.508 170.868 514.066 171.301 514.73 171.646C515.407 171.983 516.139 172.21 516.96 172.324C517.709 172.413 518.418 172.383 519.11 172.218C519.781 172.049 520.397 171.77 520.935 171.398C521.464 171.013 521.913 170.535 522.257 169.981C522.614 169.418 522.82 168.791 522.916 168.109L522.947 167.907C523.132 166.475 522.827 165.293 522.018 164.37C521.21 163.447 520.138 162.898 518.77 162.726L515.565 162.308L515.553 162.261Z" fill="#BABABA"/>
<path d="M535.337 174.755L539.217 155.041L538.817 154.959L533.202 163.061L530.407 162.519L530.45 162.309L536.808 153.262L542.302 154.337L538.187 175.297L544.86 176.615L544.34 179.25L528.166 176.077L528.686 173.441L535.359 174.759L535.337 174.755Z" fill="#BABABA"/>
<path d="M577.941 176.346L579.23 172.586L588.261 170.385L588.385 169.993L575.514 165.591L576.375 163.059L591.581 168.27L590.154 172.43L581.124 174.631L581 175.023L582.291 175.464C583.162 175.763 583.952 176.189 584.648 176.749C585.357 177.301 585.923 177.966 586.361 178.714C586.787 179.471 587.064 180.307 587.173 181.218C587.282 182.128 587.154 183.122 586.799 184.157L586.602 184.742C586.268 185.726 585.766 186.566 585.084 187.27C584.41 187.987 583.619 188.526 582.706 188.909C581.807 189.283 580.819 189.497 579.749 189.529C578.678 189.561 577.604 189.395 576.498 189.014C575.228 188.577 574.131 187.99 573.263 187.252C572.374 186.509 571.7 185.68 571.22 184.758C570.732 183.824 570.464 182.837 570.394 181.791C570.336 180.738 570.472 179.702 570.841 178.658L571.444 176.896L574.17 177.83L573.639 179.399C573.36 180.219 573.242 181.006 573.302 181.731C573.348 182.465 573.551 183.132 573.885 183.749C574.218 184.366 574.679 184.9 575.275 185.362C575.858 185.833 576.552 186.195 577.33 186.465C578.036 186.709 578.748 186.823 579.456 186.793C580.151 186.771 580.797 186.619 581.401 186.348C582.005 186.078 582.53 185.714 582.984 185.215C583.446 184.729 583.782 184.161 584.004 183.505L584.077 183.312C584.544 181.949 584.475 180.739 583.874 179.661C583.268 178.604 582.316 177.849 581.016 177.395L577.962 176.35L577.941 176.346Z" fill="#BABABA"/>
<path d="M593.571 178.968C594.775 176.1 596.391 174.162 598.432 173.145C600.461 172.137 602.707 172.149 605.162 173.17C607.605 174.199 609.185 175.796 609.894 177.949C610.603 180.102 610.349 182.617 609.153 185.497L607.073 190.433C605.831 193.38 604.198 195.348 602.178 196.314C600.158 197.281 597.917 197.247 595.474 196.218C593.031 195.189 591.434 193.621 590.708 191.498C589.982 189.374 590.241 186.839 591.483 183.891L593.563 178.955L593.571 178.968ZM596.503 193.83C598.21 194.544 599.744 194.497 601.101 193.658C602.458 192.818 603.588 191.328 604.497 189.146L606.41 184.593C606.837 183.583 607.125 182.612 607.26 181.685C607.396 180.759 607.384 179.912 607.194 179.127C607.005 178.342 606.676 177.649 606.165 177.039C605.654 176.43 604.987 175.941 604.137 175.591C603.28 175.228 602.455 175.081 601.683 175.152C600.911 175.224 600.181 175.468 599.492 175.886C598.803 176.304 598.188 176.89 597.62 177.629C597.059 178.38 596.561 179.254 596.134 180.263L594.222 184.816C593.304 186.986 593.028 188.86 593.39 190.404C593.74 191.957 594.779 193.092 596.486 193.805L596.503 193.83Z" fill="#BABABA"/>
<path d="M641.272 216.302L639.911 218.599L625.894 210.33L627.995 206.781C628.552 205.831 629.197 205.097 629.924 204.6C630.656 204.081 631.459 203.753 632.336 203.593C633.214 203.434 634.158 203.431 635.189 203.588C636.221 203.745 637.319 204.004 638.501 204.39C640.487 205.029 642.083 205.214 643.29 204.947C644.497 204.68 645.415 204.002 646.048 202.948L646.15 202.771C646.469 202.234 646.675 201.662 646.813 201.043C646.939 200.433 646.938 199.796 646.807 199.155C646.675 198.514 646.392 197.918 645.957 197.313C645.522 196.708 644.905 196.186 644.082 195.71C642.566 194.816 641.122 194.585 639.729 195.012C638.344 195.451 637.201 196.422 636.29 197.968L635.529 199.27L633.046 197.794L633.923 196.307C634.48 195.358 635.184 194.548 636.005 193.862C636.827 193.175 637.752 192.675 638.757 192.377C639.774 192.07 640.845 191.984 641.978 192.129C643.111 192.274 644.276 192.689 645.46 193.383C646.662 194.101 647.597 194.886 648.279 195.783C648.953 196.668 649.398 197.593 649.642 198.543C649.885 199.492 649.922 200.432 649.753 201.363C649.583 202.293 649.275 203.151 648.807 203.932L648.488 204.47C647.561 206.045 646.27 207.096 644.624 207.635C642.977 208.173 640.934 208.027 638.49 207.217C636.353 206.515 634.644 206.24 633.349 206.401C632.054 206.563 631.039 207.286 630.257 208.584L629.733 209.475L641.264 216.289L641.272 216.302Z" fill="#BABABA"/>
<path d="M650.009 216.86C649.163 218.09 648.874 219.335 649.12 220.593C649.366 221.85 650.161 222.946 651.496 223.867C652.13 224.305 652.815 224.599 653.51 224.742C654.204 224.885 654.887 224.872 655.566 224.716C656.246 224.559 656.888 224.264 657.501 223.841C658.115 223.419 658.661 222.84 659.15 222.118L661.172 219.167L660.836 218.933C659.839 219.463 658.771 219.693 657.626 219.611C656.493 219.52 655.391 219.118 654.303 218.379C653.38 217.75 652.629 217.026 652.039 216.213C651.462 215.393 651.071 214.522 650.882 213.573C650.702 212.637 650.729 211.655 650.957 210.649C651.186 209.643 651.647 208.63 652.352 207.601L652.586 207.265C653.261 206.275 654.045 205.503 654.946 204.91C655.847 204.316 656.814 203.934 657.835 203.771C658.847 203.595 659.905 203.627 660.961 203.877C662.03 204.119 663.064 204.584 664.063 205.272C665.063 205.96 665.876 206.752 666.49 207.658C667.092 208.571 667.513 209.513 667.722 210.522C667.931 211.53 667.93 212.55 667.714 213.602C667.497 214.654 667.062 215.651 666.403 216.612L661.514 223.745C660.792 224.803 659.961 225.642 659.039 226.231C658.117 226.82 657.146 227.223 656.112 227.395C655.1 227.57 654.055 227.531 652.999 227.281C651.942 227.03 650.937 226.582 649.976 225.924C649.015 225.266 648.226 224.511 647.599 223.669C646.98 222.84 646.563 221.931 646.349 220.999C646.135 220.066 646.115 219.097 646.327 218.12C646.531 217.131 646.957 216.177 647.603 215.224L649.988 216.855L650.009 216.86ZM662.644 207.371C661.96 206.912 661.266 206.605 660.555 206.437C659.852 206.281 659.14 206.277 658.465 206.413C657.777 206.556 657.139 206.831 656.56 207.249C655.959 207.663 655.455 208.196 655.017 208.83L654.784 209.165C654.329 209.829 654.026 210.501 653.883 211.196C653.74 211.89 653.732 212.569 653.872 213.223C653.999 213.885 654.278 214.502 654.684 215.09C655.089 215.678 655.622 216.182 656.285 216.637C656.919 217.074 657.592 217.377 658.294 217.533C658.997 217.688 659.671 217.717 660.338 217.624C661.004 217.531 661.625 217.286 662.217 216.914C662.801 216.529 663.305 216.052 663.725 215.447L664.099 214.91C664.524 214.284 664.822 213.633 664.986 212.942C665.15 212.252 665.179 211.578 665.057 210.895C664.934 210.211 664.68 209.578 664.279 208.969C663.878 208.36 663.341 207.822 662.657 207.363L662.644 207.371Z" fill="#BABABA"/>
<path d="M690.734 254.841L688.932 256.829L676.88 245.882L679.657 242.833C680.395 242.02 681.174 241.434 681.993 241.076C682.813 240.718 683.669 240.554 684.554 240.572C685.447 240.602 686.386 240.784 687.353 241.148C688.333 241.503 689.35 241.997 690.443 242.606C692.249 243.635 693.78 244.137 695.023 244.118C696.267 244.1 697.293 243.642 698.12 242.715L698.26 242.568C698.671 242.116 699.007 241.603 699.259 241.019C699.511 240.435 699.636 239.824 699.627 239.175C699.631 238.518 699.478 237.872 699.166 237.205C698.854 236.537 698.36 235.898 697.668 235.262C696.364 234.083 694.993 233.549 693.547 233.701C692.105 233.833 690.777 234.58 689.586 235.892L688.577 237.012L686.442 235.07L687.591 233.804C688.329 232.99 689.176 232.342 690.114 231.833C691.061 231.336 692.065 231.038 693.107 230.934C694.156 230.843 695.226 230.976 696.303 231.34C697.388 231.716 698.442 232.35 699.457 233.283C700.493 234.22 701.246 235.197 701.721 236.195C702.204 237.204 702.452 238.188 702.501 239.174C702.551 240.16 702.394 241.082 702.039 241.953C701.685 242.823 701.217 243.605 700.594 244.288L700.182 244.741C698.949 246.1 697.474 246.871 695.758 247.055C694.041 247.24 692.059 246.69 689.833 245.409C687.88 244.294 686.265 243.666 684.959 243.562C683.666 243.449 682.508 243.957 681.499 245.077L680.804 245.844L690.721 254.849L690.734 254.841Z" fill="#BABABA"/>
<path d="M696.823 265.549C695.972 264.672 695.337 263.763 694.904 262.829C694.47 261.895 694.202 260.963 694.127 260.048C694.052 259.133 694.174 258.27 694.486 257.445C694.799 256.621 695.287 255.899 695.961 255.237L696.262 254.948C696.851 254.378 697.464 253.956 698.11 253.694C698.744 253.44 699.381 253.275 700.013 253.24C700.645 253.206 701.269 253.268 701.871 253.436C702.472 253.604 703.027 253.839 703.548 254.132L703.849 253.843C703.599 253.353 703.433 252.825 703.348 252.281C703.254 251.724 703.257 251.176 703.327 250.621C703.398 250.065 703.565 249.518 703.829 248.98C704.093 248.442 704.459 247.947 704.937 247.486L705.238 247.197C705.895 246.564 706.635 246.113 707.437 245.839C708.239 245.565 709.078 245.486 709.946 245.587C710.813 245.689 711.676 245.976 712.537 246.427C713.398 246.879 714.234 247.511 715.025 248.354L715.16 248.502C715.926 249.307 716.541 250.158 716.962 251.045C717.391 251.945 717.639 252.819 717.714 253.679C717.79 254.539 717.671 255.381 717.376 256.176C717.081 256.971 716.605 257.685 715.936 258.326L715.635 258.615C715.156 259.076 714.645 259.431 714.091 259.668C713.538 259.906 712.993 260.046 712.433 260.106C711.876 260.145 711.312 260.117 710.764 260.004C710.209 259.879 709.696 259.707 709.233 259.448L708.933 259.737C709.208 260.265 709.432 260.827 709.568 261.447C709.716 262.059 709.755 262.67 709.688 263.315C709.634 263.951 709.462 264.574 709.168 265.204C708.887 265.826 708.445 266.426 707.843 267.005L707.543 267.294C706.861 267.943 706.108 268.403 705.28 268.693C704.445 268.971 703.572 269.055 702.662 268.944C701.752 268.834 700.835 268.547 699.915 268.061C698.995 267.576 698.114 266.901 697.271 266.036L696.848 265.587L696.823 265.549ZM707.34 255.855C708.333 256.893 709.421 257.468 710.579 257.597C711.75 257.717 712.73 257.381 713.564 256.577L713.704 256.43C714.552 255.617 714.915 254.65 714.82 253.511C714.725 252.373 714.171 251.283 713.161 250.219C712.139 249.164 711.076 248.573 709.943 248.428C708.818 248.295 707.818 248.627 706.983 249.431L706.835 249.565C706.013 250.361 705.637 251.337 705.715 252.505C705.793 253.672 706.322 254.78 707.327 255.809L707.34 255.855ZM699.073 264.104C700.158 265.226 701.322 265.861 702.564 266.007C703.819 266.144 704.905 265.775 705.832 264.891L705.981 264.757C707.006 263.772 707.454 262.658 707.318 261.401C707.182 260.145 706.573 258.944 705.479 257.809L705.345 257.661C704.251 256.525 703.071 255.866 701.824 255.686C700.578 255.507 699.442 255.909 698.417 256.894L698.269 257.028C697.341 257.912 696.935 258.98 697.025 260.249C697.128 261.51 697.707 262.693 698.792 263.816L699.081 264.116L699.073 264.104Z" fill="#BABABA"/>
<path d="M731.122 302.396L728.956 303.969L719.378 290.81L722.708 288.38C723.596 287.74 724.484 287.319 725.344 287.135C726.226 286.954 727.09 286.967 727.961 287.157C728.82 287.356 729.707 287.736 730.58 288.288C731.454 288.841 732.377 289.525 733.296 290.339C734.864 291.725 736.259 292.517 737.471 292.755C738.684 292.994 739.789 292.738 740.804 292.015L740.982 291.898C741.477 291.517 741.905 291.09 742.275 290.573C742.631 290.065 742.883 289.481 743.013 288.85C743.143 288.218 743.13 287.535 742.97 286.822C742.809 286.109 742.447 285.366 741.899 284.617C740.866 283.187 739.622 282.404 738.174 282.249C736.725 282.094 735.294 282.545 733.838 283.595L732.616 284.473L730.913 282.138L732.305 281.13C733.194 280.49 734.149 280.006 735.174 279.712C736.2 279.419 737.25 279.328 738.29 279.443C739.33 279.558 740.357 279.901 741.344 280.488C742.331 281.075 743.232 281.918 744.035 283.027C744.855 284.161 745.397 285.26 745.657 286.344C745.916 287.428 745.97 288.449 745.812 289.425C745.647 290.39 745.314 291.264 744.799 292.058C744.285 292.852 743.645 293.51 742.909 294.049L742.405 294.417C740.933 295.497 739.325 295.956 737.615 295.79C735.892 295.633 734.068 294.688 732.152 292.966C730.474 291.47 729.009 290.543 727.768 290.178C726.526 289.813 725.29 290.063 724.063 290.962L723.225 291.569L731.101 302.392L731.122 302.396Z" fill="#BABABA"/>
<path d="M751.358 294.197L759.947 307.788L756.404 310.032L738.045 309.645C737.16 309.627 736.439 309.665 735.857 309.721C735.284 309.79 734.752 309.976 734.287 310.264L733.424 310.833L731.899 308.435L732.943 307.783C733.286 307.558 733.649 307.391 733.995 307.254C734.35 307.13 734.721 307.03 735.139 306.974C735.557 306.917 736.003 306.877 736.496 306.88C736.99 306.883 737.571 306.882 738.237 306.898L755.98 307.345L756.323 307.119L749.066 295.634L751.324 294.201L751.358 294.197Z" fill="#BABABA"/>
<path d="M760.969 356.732L758.535 357.844L751.764 343.036L755.516 341.329C756.508 340.875 757.458 340.632 758.355 340.641C759.245 340.637 760.095 340.823 760.919 341.19C761.73 341.566 762.519 342.101 763.261 342.813C764.025 343.529 764.77 344.385 765.523 345.362C766.783 347.025 767.99 348.085 769.142 348.564C770.286 349.029 771.42 349.01 772.556 348.498L772.738 348.415C773.296 348.157 773.816 347.814 774.256 347.378C774.718 346.947 775.067 346.426 775.331 345.833C775.587 345.228 775.7 344.571 775.688 343.833C775.662 343.104 775.464 342.307 775.069 341.457C774.336 339.848 773.271 338.839 771.891 338.402C770.511 337.964 769.01 338.116 767.375 338.866L766.006 339.495L764.803 336.867L766.366 336.146C767.359 335.692 768.393 335.411 769.464 335.325C770.534 335.238 771.575 335.353 772.572 335.679C773.569 336.004 774.501 336.536 775.361 337.316C776.212 338.084 776.927 339.087 777.502 340.346C778.085 341.617 778.399 342.812 778.435 343.916C778.479 345.033 778.326 346.043 777.976 346.948C777.634 347.864 777.119 348.658 776.467 349.324C775.801 349.999 775.048 350.514 774.225 350.893L773.667 351.151C771.998 351.904 770.345 352.047 768.684 351.541C767.022 351.034 765.432 349.753 763.879 347.7C762.528 345.898 761.283 344.698 760.136 344.089C758.989 343.481 757.725 343.495 756.356 344.124L755.422 344.557L760.99 356.737L760.969 356.732Z" fill="#BABABA"/>
<path d="M780.805 368.118C782.207 367.595 783.152 366.736 783.676 365.572C784.193 364.395 784.175 363.042 783.597 361.53C783.319 360.804 782.943 360.178 782.444 359.67C781.958 359.153 781.379 358.77 780.74 358.518C780.092 358.253 779.393 358.131 778.635 358.14C777.876 358.148 777.1 358.296 776.315 358.595L772.983 359.862L773.132 360.255C774.273 360.413 775.278 360.861 776.176 361.616C777.073 362.371 777.742 363.331 778.191 364.509C778.582 365.544 778.77 366.548 778.781 367.559C778.793 368.571 778.589 369.505 778.18 370.375C777.771 371.245 777.181 372.035 776.41 372.742C775.631 373.438 774.658 374.006 773.514 374.45L773.134 374.591C772.015 375.019 770.935 375.203 769.86 375.147C768.795 375.103 767.793 374.853 766.864 374.41C765.935 373.966 765.108 373.346 764.388 372.529C763.668 371.712 763.087 370.748 762.668 369.641C762.248 368.535 762.039 367.417 762.041 366.342C762.047 365.247 762.234 364.232 762.635 363.295C763.015 362.353 763.606 361.509 764.36 360.776C765.126 360.034 766.036 359.453 767.129 359.042L775.313 355.943C776.492 355.494 777.639 355.303 778.751 355.334C779.872 355.378 780.907 355.624 781.845 356.08C782.782 356.536 783.621 357.147 784.333 357.952C785.058 358.748 785.613 359.674 786.016 360.755C786.432 361.828 786.633 362.878 786.669 363.928C786.697 364.965 786.532 365.929 786.181 366.833C785.822 367.724 785.274 368.522 784.558 369.23C783.842 369.939 782.929 370.486 781.869 370.893L780.855 368.194L780.805 368.118ZM765.02 368.71C765.311 369.483 765.703 370.134 766.185 370.672C766.667 371.21 767.229 371.622 767.843 371.891C768.465 372.172 769.126 372.319 769.83 372.31C770.542 372.314 771.263 372.166 772.023 371.884L772.403 371.743C773.142 371.456 773.781 371.072 774.31 370.578C774.84 370.083 775.239 369.529 775.521 368.907C775.802 368.285 775.941 367.611 775.957 366.891C775.965 366.158 775.839 365.44 775.56 364.714C775.282 363.988 774.906 363.362 774.412 362.832C773.917 362.303 773.363 361.904 772.733 361.61C772.102 361.315 771.454 361.16 770.746 361.135C770.039 361.11 769.359 361.212 768.68 361.478L768.071 361.715C767.37 361.976 766.745 362.352 766.232 362.817C765.707 363.29 765.312 363.824 765.031 364.446C764.749 365.068 764.611 365.741 764.594 366.462C764.586 367.195 764.729 367.938 765.02 368.71Z" fill="#BABABA"/>
<path d="M779.591 416.625L776.979 417.218L773.332 401.353L777.349 400.435C778.421 400.184 779.39 400.164 780.266 400.333C781.141 400.502 781.944 400.865 782.658 401.395C783.371 401.926 784.042 402.612 784.623 403.467C785.217 404.313 785.78 405.306 786.318 406.426C787.213 408.311 788.188 409.597 789.208 410.289C790.229 410.982 791.349 411.19 792.555 410.923L792.762 410.878C793.361 410.738 793.936 410.505 794.464 410.175C794.993 409.845 795.454 409.413 795.828 408.876C796.202 408.339 796.45 407.721 796.576 407.001C796.702 406.281 796.652 405.459 796.455 404.552C796.051 402.834 795.236 401.624 793.967 400.914C792.698 400.203 791.195 400.047 789.456 400.447L787.984 400.78L787.333 397.97L789.004 397.578C790.076 397.327 791.138 397.283 792.199 397.402C793.269 397.534 794.253 397.869 795.169 398.375C796.094 398.894 796.89 399.607 797.576 400.537C798.254 401.456 798.754 402.6 799.062 403.925C799.375 405.284 799.44 406.515 799.257 407.618C799.074 408.721 798.723 409.68 798.192 410.503C797.661 411.326 797.008 411.993 796.23 412.524C795.443 413.042 794.611 413.408 793.712 413.618L793.113 413.758C791.328 414.17 789.681 413.963 788.165 413.124C786.656 412.298 785.346 410.723 784.246 408.391C783.284 406.35 782.306 404.921 781.311 404.102C780.309 403.271 779.075 403.028 777.603 403.361L776.603 403.583L779.599 416.638L779.591 416.625Z" fill="#BABABA"/>
<path d="M788.967 419.673L801.511 417.669L803.887 432.515L801.234 432.935L799.307 420.868L790.833 422.229L790.902 422.638C791.386 422.792 791.878 423.014 792.344 423.307C792.81 423.601 793.251 423.966 793.645 424.398C794.038 424.83 794.381 425.35 794.669 425.925C794.956 426.499 795.159 427.166 795.29 427.917C795.461 429.005 795.447 430.033 795.227 430.997C795.015 431.974 794.618 432.835 794.079 433.591C793.527 434.355 792.815 434.987 791.948 435.522C791.073 436.044 790.081 436.388 788.946 436.572L788.335 436.665C787.2 436.849 786.105 436.843 785.04 436.635C783.975 436.427 782.999 436.05 782.109 435.472C781.218 434.894 780.456 434.123 779.842 433.163C779.219 432.191 778.808 431.042 778.584 429.68C778.364 428.296 778.379 427.049 778.613 425.912C778.855 424.789 779.278 423.801 779.876 422.969C780.488 422.13 781.254 421.443 782.176 420.909C783.097 420.374 784.136 420.018 785.292 419.838L786.245 419.684L786.701 422.531L785.955 422.64C784.082 422.946 782.755 423.693 781.981 424.894C781.208 426.095 780.964 427.548 781.228 429.248C781.371 430.154 781.662 430.927 782.101 431.566C782.527 432.213 783.072 432.709 783.698 433.079C784.324 433.449 785.03 433.693 785.797 433.807C786.563 433.921 787.355 433.908 788.14 433.773L788.342 433.749C789.047 433.631 789.684 433.411 790.247 433.077C790.822 432.735 791.3 432.328 791.686 431.838C792.073 431.347 792.354 430.779 792.517 430.144C792.681 429.508 792.71 428.834 792.592 428.13C792.514 427.653 792.382 427.231 792.173 426.859C791.964 426.487 791.743 426.178 791.479 425.915C791.215 425.653 790.937 425.453 790.639 425.304C790.341 425.155 790.063 425.065 789.793 425.042L788.942 419.69L788.967 419.673Z" fill="#BABABA"/>
<path d="M785.602 478.749L782.926 478.802L782.577 462.529L786.699 462.434C787.79 462.406 788.755 462.571 789.583 462.917C790.398 463.271 791.108 463.768 791.707 464.429C792.306 465.09 792.807 465.906 793.215 466.856C793.623 467.807 793.971 468.887 794.28 470.103C794.775 472.124 795.462 473.582 796.321 474.471C797.193 475.353 798.244 475.788 799.479 475.757L799.69 475.746C800.305 475.741 800.913 475.613 801.495 475.393C802.078 475.173 802.619 474.835 803.094 474.395C803.568 473.955 803.938 473.384 804.207 472.715C804.481 472.025 804.603 471.217 804.587 470.281C804.555 468.52 803.989 467.164 802.89 466.214C801.791 465.264 800.361 464.805 798.565 464.842L797.057 464.871L796.992 461.984L798.712 461.943C799.803 461.915 800.877 462.081 801.883 462.42C802.896 462.771 803.799 463.286 804.601 463.977C805.402 464.668 806.033 465.544 806.512 466.575C807 467.619 807.246 468.821 807.28 470.199C807.311 471.598 807.127 472.811 806.717 473.846C806.315 474.893 805.775 475.758 805.093 476.462C804.41 477.166 803.624 477.685 802.749 478.042C801.875 478.4 800.972 478.576 800.058 478.596L799.442 478.601C797.613 478.642 796.036 478.098 794.719 476.983C793.402 475.867 792.446 474.058 791.832 471.552C791.305 469.37 790.635 467.773 789.823 466.762C789.011 465.75 787.851 465.259 786.342 465.289L785.318 465.308L785.603 478.694L785.602 478.749Z" fill="#BABABA"/>
<path d="M806.554 491.22L806.304 496.806L789.498 496.069L789.339 499.777L786.663 499.665L786.823 495.958L782.289 495.76L782.41 492.878L786.944 493.076L787.43 481.966L791.408 482.148L806.55 491.241L806.554 491.22ZM790.429 484.557L790.016 484.538L789.632 493.179L805.208 493.871L805.227 493.458L790.429 484.557Z" fill="#BABABA"/>
<path d="M779.013 540.475L776.382 539.989L779.302 523.983L783.36 524.73C784.438 524.93 785.342 525.28 786.073 525.781C786.803 526.283 787.406 526.922 787.862 527.696C788.317 528.47 788.649 529.361 788.858 530.369C789.068 531.377 789.196 532.512 789.249 533.751C789.334 535.842 789.705 537.399 790.377 538.447C791.055 539.475 791.987 540.117 793.212 540.347L793.414 540.377C794.016 540.49 794.639 540.498 795.264 540.396C795.888 540.294 796.471 540.074 797.033 539.74C797.587 539.393 798.057 538.919 798.457 538.31C798.856 537.702 799.147 536.928 799.316 535.997C799.629 534.263 799.347 532.812 798.464 531.665C797.581 530.518 796.262 529.786 794.498 529.456L793.007 529.182L793.524 526.349L795.217 526.653C796.294 526.853 797.295 527.212 798.224 527.765C799.144 528.306 799.924 528.993 800.572 529.839C801.213 530.673 801.658 531.653 801.922 532.771C802.185 533.889 802.195 535.12 801.939 536.471C801.7 537.848 801.264 539.009 800.656 539.937C800.057 540.877 799.345 541.619 798.541 542.167C797.725 542.723 796.863 543.072 795.939 543.244C795.015 543.416 794.105 543.415 793.196 543.25L792.594 543.137C790.796 542.811 789.359 541.956 788.288 540.606C787.229 539.248 786.646 537.285 786.55 534.709C786.474 532.467 786.134 530.763 785.55 529.601C784.954 528.447 783.917 527.729 782.435 527.468L781.42 527.281L779.018 540.454L779.013 540.475Z" fill="#BABABA"/>
<path d="M785.798 552.072L789.657 553.042L792.626 561.857L793.021 561.96L796.326 548.776L798.922 549.43L795.015 565.014L790.747 563.95L787.787 555.147L787.391 555.044L787.051 556.378C786.835 557.266 786.468 558.09 785.975 558.833C785.483 559.576 784.881 560.209 784.166 560.698C783.451 561.187 782.644 561.537 781.729 561.722C780.813 561.906 779.836 561.859 778.771 561.596L778.165 561.449C777.163 561.199 776.277 560.765 775.526 560.149C774.754 559.53 774.151 558.781 773.692 557.919C773.233 557.056 772.939 556.085 772.827 555.031C772.694 553.973 772.788 552.873 773.064 551.746C773.387 550.441 773.882 549.314 774.549 548.366C775.203 547.425 775.983 546.675 776.867 546.111C777.751 545.547 778.709 545.207 779.751 545.048C780.793 544.889 781.842 544.962 782.906 545.225L784.712 545.674L784.014 548.481L782.419 548.076C781.573 547.869 780.793 547.818 780.068 547.932C779.343 548.046 778.688 548.295 778.104 548.68C777.521 549.064 777.021 549.576 776.608 550.193C776.184 550.819 775.885 551.525 775.686 552.329C775.493 553.057 775.455 553.773 775.531 554.469C775.62 555.156 775.819 555.789 776.128 556.368C776.449 556.939 776.864 557.43 777.38 557.854C777.908 558.27 778.497 558.556 779.153 558.724L779.351 558.776C780.748 559.129 781.959 558.95 782.965 558.269C783.985 557.579 784.644 556.563 784.984 555.229L785.76 552.097L785.798 552.072Z" fill="#BABABA"/>
<path d="M760.248 599.653L757.755 598.657L763.813 583.549L767.644 585.083C768.657 585.489 769.48 586.02 770.105 586.664C770.729 587.308 771.18 588.048 771.466 588.897C771.752 589.745 771.899 590.686 771.906 591.718C771.913 592.751 771.81 593.892 771.613 595.113C771.278 597.172 771.34 598.786 771.785 599.931C772.238 601.088 773.039 601.889 774.182 602.355L774.376 602.427C774.943 602.654 775.554 602.779 776.182 602.821C776.801 602.849 777.433 602.76 778.042 602.523C778.658 602.299 779.208 601.919 779.729 601.412C780.242 600.892 780.671 600.19 781.026 599.32C781.68 597.688 781.688 596.209 781.054 594.916C780.412 593.611 779.276 592.631 777.615 591.96L776.206 591.396L777.283 588.722L778.885 589.359C779.898 589.765 780.814 590.326 781.611 591.038C782.408 591.75 783.035 592.593 783.489 593.531C783.952 594.481 784.186 595.528 784.235 596.678C784.262 597.825 784.024 599.037 783.519 600.316C783.002 601.602 782.356 602.665 781.568 603.457C780.788 604.262 779.955 604.847 779.055 605.222C778.155 605.596 777.219 605.776 776.279 605.758C775.34 605.741 774.435 605.555 773.594 605.217L773.026 604.991C771.323 604.311 770.082 603.2 769.315 601.649C768.535 600.107 768.373 598.066 768.788 595.519C769.167 593.305 769.172 591.573 768.816 590.315C768.469 589.07 767.593 588.155 766.185 587.591L765.222 587.206L760.24 599.64L760.248 599.653Z" fill="#BABABA"/>
<path d="M751.389 618.408L748.972 617.252L756.027 602.579L759.738 604.374C760.726 604.851 761.507 605.429 762.08 606.106C762.654 606.784 763.054 607.557 763.294 608.418C763.534 609.279 763.613 610.228 763.544 611.255C763.475 612.283 763.309 613.412 763.037 614.628C762.574 616.661 762.519 618.262 762.888 619.457C763.261 620.63 764.002 621.507 765.111 622.031L765.301 622.125C765.86 622.394 766.449 622.57 767.072 622.632C767.704 622.707 768.319 622.647 768.948 622.469C769.569 622.279 770.152 621.949 770.703 621.459C771.253 620.969 771.729 620.31 772.134 619.461C772.901 617.864 773.002 616.415 772.457 615.063C771.912 613.712 770.835 612.657 769.217 611.885L767.859 611.233L769.108 608.627L770.655 609.373C771.643 609.85 772.512 610.479 773.266 611.237C774.008 612.004 774.584 612.879 774.988 613.851C775.379 614.831 775.567 615.889 775.518 617.031C775.47 618.173 775.147 619.368 774.563 620.608C773.954 621.865 773.244 622.86 772.41 623.609C771.576 624.359 770.701 624.881 769.78 625.196C768.86 625.512 767.915 625.624 766.989 625.543C766.041 625.458 765.17 625.213 764.35 624.825L763.791 624.557C762.135 623.755 760.974 622.573 760.305 620.977C759.635 619.38 759.596 617.332 760.199 614.823C760.725 612.639 760.84 610.908 760.586 609.638C760.332 608.368 759.511 607.398 758.141 606.755L757.212 606.311L751.406 618.378L751.389 618.408Z" fill="#BABABA"/>
<path d="M729.694 654.388L727.465 652.909L736.444 639.334L739.883 641.599C740.798 642.215 741.494 642.885 741.974 643.642C742.455 644.399 742.737 645.214 742.863 646.095C742.976 646.985 742.924 647.929 742.725 648.952C742.517 649.962 742.203 651.06 741.754 652.229C741.015 654.172 740.74 655.772 740.961 656.991C741.17 658.218 741.796 659.17 742.821 659.841L742.985 659.952C743.497 660.288 744.06 660.535 744.675 660.694C745.289 660.854 745.908 660.882 746.554 660.785C747.199 660.687 747.82 660.442 748.442 660.032C749.051 659.631 749.623 659.036 750.137 658.242C751.11 656.764 751.417 655.325 751.058 653.924C750.699 652.522 749.77 651.333 748.276 650.335L747.02 649.506L748.614 647.092L750.041 648.043C750.957 648.66 751.741 649.38 752.364 650.243C753 651.098 753.441 652.044 753.714 653.066C753.965 654.083 754.006 655.166 753.806 656.299C753.606 657.431 753.132 658.562 752.379 659.713C751.602 660.88 750.771 661.773 749.84 662.404C748.914 663.014 747.972 663.435 747.023 663.623C746.053 663.808 745.121 663.803 744.2 663.591C743.278 663.38 742.441 663.021 741.677 662.524L741.156 662.175C739.632 661.16 738.645 659.827 738.199 658.156C737.753 656.484 737.996 654.45 738.928 652.053C739.744 649.951 740.103 648.259 740.009 646.956C739.915 645.653 739.242 644.605 737.979 643.763L737.118 643.202L729.732 654.363L729.694 654.388Z" fill="#BABABA"/>
<path d="M722.957 663.466L738.921 675.656L739.175 675.325L734.389 666.706L736.116 664.44L736.276 664.571L741.575 674.272L738.17 678.716L721.191 665.757L717.074 671.162L714.95 669.541L724.951 656.439L727.074 658.061L722.957 663.466Z" fill="#BABABA"/>
<path d="M688.71 701.766L686.82 699.863L698.37 688.397L701.279 691.32C702.05 692.104 702.598 692.908 702.909 693.74C703.221 694.572 703.338 695.44 703.274 696.338C703.202 697.222 702.969 698.14 702.564 699.098C702.158 700.057 701.613 701.053 700.959 702.102C699.841 703.858 699.247 705.359 699.21 706.602C699.166 707.832 699.581 708.905 700.445 709.774L700.591 709.914C701.027 710.354 701.535 710.711 702.094 710.979C702.661 711.261 703.267 711.407 703.916 711.453C704.557 711.486 705.227 711.372 705.899 711.093C706.579 710.827 707.247 710.35 707.921 709.688C709.175 708.443 709.768 707.107 709.696 705.644C709.632 704.194 708.957 702.837 707.704 701.571L706.64 700.507L708.682 698.47L709.889 699.695C710.66 700.478 711.27 701.35 711.729 702.322C712.187 703.293 712.417 704.306 712.475 705.36C712.511 706.409 712.337 707.47 711.91 708.534C711.482 709.598 710.79 710.618 709.811 711.591C708.82 712.571 707.809 713.274 706.786 713.711C705.756 714.135 704.747 714.344 703.774 714.331C702.801 714.317 701.875 714.126 701.013 713.73C700.151 713.333 699.412 712.819 698.767 712.171L698.331 711.73C697.04 710.433 696.353 708.921 696.249 707.188C696.153 705.469 696.796 703.517 698.194 701.358C699.405 699.469 700.105 697.879 700.293 696.591C700.469 695.311 700.02 694.133 698.96 693.048L698.243 692.319L688.735 701.749L688.71 701.766Z" fill="#BABABA"/>
<path d="M693.49 713.718C695.53 716.068 696.558 718.375 696.55 720.655C696.554 722.926 695.549 724.935 693.546 726.673C691.543 728.411 689.411 729.124 687.154 728.791C684.905 728.471 682.768 727.132 680.72 724.77L677.219 720.726C675.117 718.308 674.085 715.968 674.126 713.739C674.16 711.497 675.182 709.513 677.185 707.775C679.188 706.038 681.311 705.312 683.522 705.602C685.733 705.892 687.9 707.248 690.002 709.666L693.512 713.723L693.49 713.718ZM678.872 709.757C677.471 710.971 676.844 712.367 676.978 713.952C677.125 715.529 677.963 717.215 679.504 719.002L682.737 722.749C683.453 723.588 684.204 724.258 684.959 724.797C685.728 725.328 686.497 725.695 687.271 725.876C688.046 726.057 688.834 726.066 689.593 725.893C690.365 725.712 691.092 725.324 691.787 724.721C692.494 724.109 692.995 723.433 693.264 722.71C693.546 721.978 693.647 721.22 693.572 720.415C693.496 719.61 693.256 718.804 692.835 717.971C692.414 717.139 691.85 716.309 691.134 715.471L687.888 711.732C686.347 709.945 684.802 708.871 683.253 708.508C681.696 708.133 680.227 708.555 678.826 709.769L678.872 709.757Z" fill="#BABABA"/>
<path d="M646.742 734.727L657.69 751.567L658.033 751.342L656.413 741.619L658.799 740.048L658.924 740.238L660.659 751.158L655.973 754.209L644.322 736.302L638.626 740L637.155 737.767L650.984 728.766L652.455 730.999L646.733 734.714L646.742 734.727Z" fill="#BABABA"/>
<path d="M635 747.12C634.27 745.818 633.284 745.012 632.038 744.668C630.793 744.324 629.473 744.557 628.048 745.35C627.367 745.725 626.809 746.203 626.376 746.761C625.943 747.319 625.64 747.937 625.489 748.618C625.338 749.3 625.313 750.008 625.414 750.742C625.524 751.489 625.79 752.223 626.224 752.993L627.964 756.104L628.323 755.903C628.283 754.765 628.567 753.705 629.141 752.726C629.715 751.747 630.584 750.939 631.712 750.305C632.693 749.749 633.677 749.392 634.664 749.233C635.651 749.075 636.607 749.118 637.542 749.376C638.467 749.621 639.337 750.085 640.126 750.73C640.923 751.387 641.635 752.247 642.236 753.325L642.436 753.684C643.012 754.724 643.377 755.775 643.497 756.842C643.618 757.909 643.536 758.945 643.244 759.938C642.952 760.931 642.454 761.86 641.767 762.694C641.075 763.55 640.195 764.258 639.138 764.863C638.073 765.456 637.009 765.829 635.925 765.979C634.841 766.129 633.801 766.069 632.807 765.831C631.806 765.581 630.89 765.13 630.05 764.463C629.198 763.806 628.504 762.972 627.923 761.953L623.683 754.411C623.057 753.296 622.671 752.185 622.547 751.085C622.422 749.984 622.504 748.948 622.796 747.955C623.088 746.962 623.581 746.054 624.269 745.219C624.956 744.385 625.803 743.681 626.83 743.114C627.849 742.534 628.866 742.172 629.904 741.98C630.929 741.796 631.911 741.823 632.853 742.038C633.796 742.254 634.654 742.672 635.447 743.296C636.24 743.92 636.918 744.728 637.481 745.722L634.975 747.137L635 747.12ZM637.937 762.652C638.655 762.252 639.239 761.758 639.698 761.183C640.156 760.608 640.459 759.99 640.631 759.313C640.803 758.635 640.836 757.94 640.718 757.236C640.612 756.523 640.359 755.835 639.975 755.141L639.775 754.782C639.383 754.076 638.905 753.517 638.347 753.084C637.789 752.651 637.184 752.34 636.527 752.173C635.884 751.996 635.21 751.967 634.497 752.073C633.797 752.17 633.096 752.432 632.39 752.824C631.709 753.2 631.15 753.677 630.696 754.231C630.242 754.785 629.923 755.377 629.713 756.025C629.516 756.664 629.445 757.33 629.521 758.026C629.597 758.721 629.813 759.38 630.163 760.022L630.485 760.593C630.852 761.261 631.321 761.807 631.862 762.269C632.403 762.732 633.008 763.043 633.669 763.244C634.329 763.446 635.012 763.488 635.754 763.399C636.475 763.306 637.205 763.061 637.915 762.648L637.937 762.652Z" fill="#BABABA"/>
<path d="M591.775 763.423L599.186 782.103L599.579 781.953L599.915 772.107L602.567 771.051L602.638 771.241L602.177 782.28L596.97 784.345L589.097 764.496L582.779 767.002L581.789 764.506L597.112 758.433L598.101 760.929L591.783 763.436L591.775 763.423Z" fill="#BABABA"/>
<path d="M570.694 767.686C571.846 767.309 572.947 767.129 573.984 767.156C575.024 767.162 575.963 767.344 576.825 767.686C577.687 768.028 578.409 768.516 579.004 769.143C579.608 769.783 580.054 770.544 580.332 771.435L580.46 771.823C580.717 772.6 580.819 773.334 580.773 774.037C580.731 774.72 580.589 775.359 580.337 775.944C580.085 776.528 579.758 777.053 579.342 777.527C578.926 778.001 578.473 778.39 577.978 778.716L578.107 779.105C578.659 779.087 579.202 779.166 579.737 779.341C580.271 779.517 580.771 779.751 581.237 780.045C581.712 780.351 582.127 780.732 582.499 781.215C582.863 781.685 583.155 782.238 583.354 782.872L583.482 783.26C583.764 784.13 583.84 784.99 583.734 785.823C583.616 786.666 583.333 787.452 582.853 788.187C582.373 788.922 581.745 789.572 580.958 790.145C580.171 790.718 579.229 791.193 578.148 791.541L577.95 791.599C576.882 791.939 575.849 792.11 574.862 792.105C573.876 792.099 572.967 791.934 572.164 791.626C571.352 791.306 570.647 790.842 570.073 790.22C569.486 789.606 569.061 788.849 568.779 787.979L568.65 787.591C568.451 786.958 568.358 786.346 568.382 785.748C568.407 785.15 568.523 784.581 568.729 784.064C568.934 783.547 569.21 783.055 569.554 782.61C569.898 782.166 570.296 781.776 570.719 781.479L570.591 781.091C570.005 781.113 569.402 781.055 568.784 780.916C568.178 780.77 567.602 780.531 567.064 780.212C566.518 779.88 566.036 779.452 565.609 778.914C565.169 778.385 564.823 777.721 564.579 776.936L564.45 776.548C564.164 775.644 564.081 774.772 564.203 773.908C564.326 773.045 564.638 772.221 565.127 771.444C565.616 770.667 566.294 769.984 567.123 769.365C567.953 768.746 568.954 768.25 570.115 767.885L570.702 767.699L570.694 767.686ZM571.008 770.317C569.526 770.802 568.447 771.568 567.759 772.621C567.079 773.688 566.933 774.821 567.319 776.041L567.377 776.239C567.812 777.59 568.616 778.48 569.81 778.912C570.992 779.352 572.337 779.322 573.839 778.841L574.038 778.783C575.541 778.303 576.653 777.533 577.363 776.484C578.072 775.434 578.21 774.234 577.774 772.883L577.716 772.684C577.331 771.464 576.539 770.622 575.375 770.152C574.197 769.69 572.87 769.691 571.401 770.168L571.012 770.296L571.008 770.317ZM574.778 781.371C573.414 781.814 572.412 782.529 571.791 783.52C571.17 784.511 571.034 785.547 571.39 786.641L571.448 786.839C571.8 787.954 572.521 788.716 573.577 789.131C574.632 789.545 575.863 789.535 577.26 789.088C578.657 788.64 579.668 787.938 580.272 786.976C580.897 786.019 581.02 784.991 580.668 783.877L580.61 783.678C580.254 782.585 579.546 781.814 578.461 781.382C577.381 780.93 576.15 780.94 574.778 781.371Z" fill="#BABABA"/>
<path d="M531.848 780.667L535.326 800.447L535.735 800.377L538.067 790.799L540.877 790.312L540.914 790.506L538.225 801.229L532.716 802.202L529.013 781.17L522.311 782.347L521.845 779.706L538.085 776.85L538.551 779.49L531.848 780.667Z" fill="#BABABA"/>
<path d="M521.326 804.029L505.358 805.779L504.909 801.617L513.313 785.291C513.705 784.505 514.016 783.845 514.196 783.29C514.397 782.739 514.455 782.191 514.39 781.651L514.282 780.631L517.086 780.33L517.219 781.553C517.267 781.958 517.273 782.354 517.229 782.729C517.185 783.104 517.107 783.483 516.97 783.882C516.845 784.273 516.67 784.698 516.457 785.148C516.244 785.598 515.984 786.115 515.678 786.699L507.5 802.457L507.548 802.862L521.071 801.377L521.369 804.037L521.326 804.029Z" fill="#BABABA"/>
<path d="M470.333 785.421L469.768 805.498L470.181 805.518L474.385 796.598L477.233 796.669L477.224 796.875L472.454 806.841L466.858 806.688L467.456 785.334L460.659 785.153L460.737 782.482L477.216 782.943L477.147 785.627L470.342 785.434L470.333 785.421Z" fill="#BABABA"/>
<path d="M442.577 797.975C442.439 799.449 442.786 800.694 443.615 801.676C444.444 802.659 445.663 803.238 447.289 803.386C448.064 803.458 448.78 803.386 449.46 803.175C450.14 802.964 450.736 802.626 451.24 802.148C451.744 801.67 452.177 801.112 452.505 800.423C452.833 799.734 453.044 798.976 453.108 798.134L453.443 794.583L453.035 794.543C452.389 795.496 451.542 796.199 450.477 796.682C449.405 797.153 448.249 797.332 446.989 797.215C445.903 797.112 444.906 796.841 443.998 796.402C443.102 795.955 442.335 795.369 441.732 794.62C441.129 793.871 440.67 793.009 440.385 791.996C440.1 790.983 440.009 789.878 440.129 788.652L440.17 788.244C440.281 787.06 440.599 785.996 441.11 785.059C441.621 784.122 442.278 783.325 443.099 782.693C443.899 782.057 444.829 781.59 445.888 781.292C446.935 781.003 448.061 780.916 449.244 781.028C450.428 781.14 451.518 781.441 452.493 781.927C453.468 782.413 454.294 783.032 454.981 783.799C455.668 784.565 456.157 785.445 456.497 786.458C456.828 787.459 456.944 788.546 456.824 789.717L456.005 798.445C455.889 799.704 455.562 800.81 455.03 801.798C454.498 802.785 453.828 803.591 453.011 804.256C452.198 804.901 451.269 805.368 450.243 805.661C449.217 805.955 448.134 806.05 446.992 805.947C445.851 805.844 444.811 805.564 443.857 805.137C442.903 804.711 442.114 804.121 441.469 803.418C440.815 802.702 440.352 801.861 440.033 800.907C439.726 799.944 439.614 798.89 439.725 797.761L442.598 798.034L442.577 797.975ZM448.999 783.555C448.182 783.475 447.423 783.538 446.722 783.745C446.021 783.952 445.408 784.265 444.892 784.696C444.375 785.127 443.947 785.664 443.64 786.303C443.333 786.942 443.131 787.657 443.055 788.453L443.015 788.862C442.939 789.658 443.007 790.396 443.226 791.088C443.437 791.768 443.763 792.372 444.19 792.91C444.621 793.426 445.158 793.855 445.813 794.187C446.469 794.519 447.176 794.709 447.951 794.78C448.726 794.852 449.464 794.784 450.144 794.573C450.823 794.362 451.449 794.041 451.978 793.601C452.515 793.175 452.952 792.65 453.276 792.037C453.6 791.423 453.814 790.754 453.877 790.021L453.944 789.377C454.011 788.623 453.96 787.911 453.77 787.235C453.58 786.56 453.263 785.968 452.836 785.431C452.405 784.914 451.868 784.486 451.212 784.153C450.565 783.834 449.828 783.627 449.011 783.547L448.999 783.555Z" fill="#BABABA"/>
<path d="M408.718 777.705L404.156 797.268L404.564 797.362L410.457 789.46L413.23 790.107L413.179 790.305L406.497 799.109L401.043 797.845L405.902 777.049L399.277 775.5L399.89 772.895L415.947 776.636L415.334 779.242L408.709 777.692L408.718 777.705Z" fill="#BABABA"/>
<path d="M393.056 782.764L389.369 794.927L374.977 790.562L375.745 788L387.445 791.537L389.934 783.329L389.543 783.204C389.191 783.582 388.772 783.912 388.307 784.2C387.842 784.489 387.31 784.73 386.748 784.9C386.187 785.07 385.58 785.142 384.931 785.151C384.282 785.16 383.591 785.051 382.867 784.836C381.816 784.51 380.891 784.046 380.119 783.427C379.334 782.815 378.727 782.087 378.285 781.25C377.843 780.414 377.57 779.502 377.491 778.498C377.404 777.482 377.519 776.442 377.854 775.348L378.03 774.759C378.365 773.665 378.85 772.69 379.492 771.813C380.141 770.949 380.912 770.241 381.817 769.681C382.73 769.134 383.756 768.785 384.89 768.657C386.025 768.528 387.259 768.661 388.571 769.052C389.913 769.46 391.027 770.018 391.946 770.722C392.853 771.435 393.565 772.24 394.044 773.161C394.536 774.074 394.805 775.062 394.883 776.12C394.949 777.187 394.825 778.269 394.486 779.384L394.207 780.314L391.452 779.473L391.666 778.749C392.216 776.931 392.123 775.41 391.375 774.192C390.627 772.974 389.444 772.116 387.79 771.623C386.911 771.365 386.094 771.285 385.326 771.39C384.567 771.508 383.879 771.761 383.27 772.162C382.661 772.564 382.135 773.092 381.698 773.726C381.269 774.372 380.936 775.083 380.692 775.844L380.64 776.042C380.434 776.724 380.363 777.389 380.401 778.055C380.453 778.713 380.622 779.329 380.88 779.887C381.159 780.449 381.54 780.944 382.044 781.376C382.547 781.809 383.139 782.128 383.821 782.334C384.275 782.472 384.722 782.542 385.143 782.519C385.565 782.496 385.961 782.435 386.303 782.318C386.658 782.194 386.954 782.035 387.216 781.826C387.479 781.617 387.686 781.407 387.831 781.185L393.022 782.768L393.056 782.764Z" fill="#BABABA"/>
<path d="M349.977 757.889L341.613 776.153L341.983 776.328L349.335 769.756L351.92 770.946L351.826 771.135L343.535 778.435L338.453 776.106L347.35 756.69L341.175 753.862L342.3 751.428L357.286 758.295L356.16 760.729L349.985 757.901L349.977 757.889Z" fill="#BABABA"/>
<path d="M320.922 767.313L315.998 764.644L324.001 749.837L320.732 748.079L322.005 745.73L325.274 747.489L327.433 743.501L329.971 744.868L327.812 748.855L337.606 754.139L335.712 757.643L320.935 767.305L320.922 767.313ZM333.94 755.699L334.136 755.333L326.514 751.221L319.106 764.944L319.472 765.139L333.94 755.699Z" fill="#BABABA"/>
<path d="M296.244 726.675L284.385 742.893L284.716 743.148L293.239 738.188L295.548 739.87L295.425 740.042L285.837 745.539L281.316 742.24L293.923 725.002L288.441 720.989L290.016 718.824L303.326 728.559L301.751 730.725L296.269 726.713L296.244 726.675Z" fill="#BABABA"/>
<path d="M275.211 722.118L272.653 725.167L263.431 723.983L263.168 724.302L273.592 733.028L271.874 735.088L259.562 724.767L262.383 721.399L271.606 722.583L271.869 722.264L270.811 721.377C270.111 720.783 269.525 720.114 269.07 719.341C268.614 718.567 268.32 717.761 268.19 716.9C268.059 716.04 268.106 715.172 268.326 714.263C268.554 713.366 269.019 712.497 269.731 711.645L270.126 711.167C270.792 710.382 271.554 709.771 272.462 709.355C273.349 708.934 274.294 708.712 275.268 708.671C276.242 708.63 277.248 708.804 278.241 709.151C279.254 709.502 280.195 710.046 281.093 710.801C282.121 711.671 282.925 712.615 283.488 713.608C284.047 714.623 284.387 715.636 284.504 716.669C284.62 717.702 284.509 718.722 284.192 719.731C283.875 720.741 283.368 721.657 282.647 722.496L281.455 723.918L279.249 722.06L280.309 720.797C280.865 720.122 281.256 719.445 281.467 718.743C281.677 718.04 281.744 717.341 281.655 716.654C281.566 715.966 281.321 715.291 280.937 714.652C280.565 714.005 280.05 713.417 279.413 712.891C278.842 712.411 278.216 712.041 277.547 711.827C276.891 711.604 276.222 711.499 275.577 711.542C274.923 711.572 274.286 711.737 273.69 712.021C273.095 712.304 272.57 712.723 272.133 713.247L272.001 713.406C271.072 714.51 270.712 715.675 270.891 716.885C271.07 718.096 271.688 719.144 272.736 720.018L275.216 722.097L275.211 722.118Z" fill="#BABABA"/>
<path d="M249.96 685.333L235.077 698.813L235.354 699.122L244.697 695.987L246.611 698.092L246.463 698.226L235.959 701.67L232.206 697.52L248.033 683.182L243.463 678.15L245.445 676.353L256.512 688.567L254.53 690.364L249.972 685.325L249.96 685.333Z" fill="#BABABA"/>
<path d="M230.683 662.206L232.791 660.545L242.877 673.314L239.644 675.863C238.78 676.541 237.918 676.999 237.053 677.205C236.196 677.424 235.316 677.44 234.44 677.271C233.564 677.102 232.669 676.764 231.765 676.249C230.862 675.734 229.93 675.093 228.961 674.312C227.333 673.001 225.909 672.247 224.696 672.064C223.47 671.889 222.382 672.169 221.4 672.943L221.235 673.052C220.756 673.458 220.345 673.911 220.005 674.444C219.665 674.978 219.447 675.558 219.338 676.194C219.229 676.83 219.276 677.508 219.47 678.217C219.664 678.926 220.052 679.653 220.626 680.386C221.722 681.774 222.987 682.506 224.436 682.606C225.885 682.707 227.316 682.201 228.709 681.083L229.898 680.154L231.681 682.418L230.331 683.49C229.467 684.168 228.529 684.677 227.516 685.017C226.503 685.357 225.465 685.494 224.408 685.408C223.359 685.335 222.324 685.035 221.307 684.485C220.299 683.949 219.359 683.13 218.505 682.055C217.635 680.955 217.068 679.873 216.749 678.809C216.443 677.737 216.356 676.721 216.479 675.748C216.602 674.776 216.907 673.884 217.391 673.073C217.876 672.262 218.478 671.575 219.198 671.01L219.685 670.616C221.124 669.486 222.703 668.955 224.426 669.058C226.149 669.16 228.011 670.025 229.999 671.663C231.736 673.084 233.244 673.965 234.494 674.288C235.757 674.602 236.972 674.293 238.161 673.364L238.974 672.719L230.671 662.214L230.683 662.206Z" fill="#BABABA"/>
<path d="M212.682 635.074L195.382 645.27L195.607 645.612L205.37 644.44L206.819 646.888L206.641 647.005L195.648 648.242L192.8 643.423L211.208 632.588L207.751 626.732L210.059 625.375L218.427 639.568L216.118 640.925L212.661 635.069L212.682 635.074Z" fill="#BABABA"/>
<path d="M202.726 617.033L184.638 625.784L184.813 626.16L194.663 625.784L195.901 628.353L195.719 628.436L184.668 628.784L182.238 623.743L201.46 614.447L198.497 608.32L200.91 607.149L208.081 621.984L205.668 623.155L202.705 617.029L202.726 617.033Z" fill="#BABABA"/>
<path d="M186.262 578.371L167.258 584.904L167.387 585.292L177.214 586.096L178.139 588.798L177.949 588.869L166.939 587.898L165.122 582.6L185.329 575.656L183.118 569.234L185.655 568.363L191.015 583.955L188.477 584.826L186.266 578.405L186.262 578.371Z" fill="#BABABA"/>
<path d="M170.547 569.237C167.538 570.055 165.01 569.973 162.975 568.984C160.928 568.004 159.56 566.231 158.849 563.66C158.139 561.09 158.442 558.871 159.708 556.981C160.974 555.092 163.105 553.743 166.114 552.925L171.284 551.52C174.374 550.686 176.927 550.75 178.936 551.756C180.937 552.749 182.292 554.53 182.982 557.096C183.684 559.654 183.423 561.882 182.195 563.746C180.976 565.623 178.811 566.977 175.73 567.824L170.56 569.228L170.547 569.237ZM180.45 557.782C179.962 555.993 178.974 554.824 177.477 554.264C175.988 553.716 174.096 553.744 171.829 554.363L167.064 555.665C165.997 555.95 165.063 556.328 164.256 556.787C163.448 557.246 162.788 557.791 162.275 558.42C161.774 559.041 161.433 559.739 161.265 560.505C161.096 561.271 161.134 562.101 161.369 562.983C161.621 563.891 162.009 564.618 162.537 565.198C163.065 565.778 163.716 566.186 164.468 566.473C165.221 566.759 166.063 566.877 166.999 566.861C167.934 566.846 168.93 566.699 169.989 566.402L174.754 565.1C177.021 564.481 178.669 563.558 179.67 562.316C180.672 561.075 180.937 559.572 180.45 557.782Z" fill="#BABABA"/>
<path d="M160.868 526.651C157.781 527.047 155.293 526.612 153.399 525.367C151.497 524.109 150.395 522.16 150.047 519.533C149.712 516.897 150.288 514.734 151.81 513.04C153.324 511.333 155.622 510.292 158.709 509.896L164.027 509.213C167.207 508.792 169.716 509.232 171.564 510.489C173.411 511.747 174.5 513.704 174.848 516.331C175.183 518.967 174.62 521.121 173.152 522.816C171.685 524.51 169.366 525.547 166.186 525.968L160.868 526.651ZM172.254 516.675C172.02 514.828 171.189 513.538 169.798 512.78C168.394 512.031 166.533 511.802 164.188 512.109L159.288 512.735C158.196 512.873 157.225 513.112 156.343 513.457C155.473 513.793 154.754 514.249 154.161 514.785C153.576 515.334 153.147 515.98 152.873 516.725C152.6 517.469 152.519 518.286 152.641 519.189C152.758 520.112 153.044 520.906 153.496 521.537C153.948 522.167 154.522 522.68 155.232 523.067C155.942 523.455 156.758 523.699 157.681 523.801C158.612 523.916 159.615 523.892 160.707 523.755L165.607 523.128C167.939 522.829 169.704 522.14 170.861 521.05C172.017 519.961 172.493 518.501 172.246 516.662L172.254 516.675Z" fill="#BABABA"/>
<path d="M165.735 501.338C167.223 501.249 168.385 500.72 169.233 499.743C170.09 498.778 170.455 497.482 170.363 495.851C170.325 495.075 170.131 494.366 169.822 493.732C169.514 493.098 169.087 492.561 168.542 492.12C167.996 491.678 167.374 491.342 166.659 491.14C165.948 490.917 165.152 490.841 164.288 490.883L160.721 491.103L160.736 491.512C161.77 491.977 162.601 492.686 163.24 493.629C163.867 494.58 164.228 495.708 164.301 497.006C164.366 498.127 164.264 499.159 163.968 500.118C163.671 501.078 163.224 501.918 162.592 502.644C161.961 503.369 161.174 503.942 160.24 504.375C159.306 504.808 158.222 505.068 156.978 505.141L156.569 505.156C155.381 505.229 154.269 505.088 153.255 504.737C152.241 504.386 151.351 503.863 150.584 503.168C149.816 502.472 149.201 501.622 148.747 500.629C148.294 499.636 148.017 498.527 147.948 497.317C147.879 496.107 148.011 494.982 148.346 493.943C148.68 492.904 149.187 491.988 149.853 491.204C150.519 490.42 151.327 489.796 152.282 489.312C153.245 488.842 154.3 488.565 155.464 488.508L164.106 487.982C165.383 487.905 166.55 488.046 167.593 488.414C168.636 488.783 169.547 489.31 170.302 490.014C171.069 490.709 171.676 491.547 172.121 492.527C172.567 493.507 172.839 494.583 172.896 495.747C172.974 496.914 172.863 497.988 172.579 498.994C172.295 500 171.852 500.874 171.237 501.625C170.635 502.367 169.864 502.966 168.973 503.408C168.068 503.858 167.051 504.109 165.909 504.17L165.735 501.283L165.735 501.338ZM150.486 497.192C150.536 498.014 150.713 498.752 151.038 499.411C151.363 500.07 151.777 500.616 152.31 501.066C152.843 501.515 153.456 501.839 154.146 502.058C154.836 502.277 155.569 502.34 156.345 502.302L156.745 502.274C157.546 502.22 158.264 502.038 158.897 501.73C159.531 501.422 160.077 501.007 160.51 500.504C160.955 499.992 161.274 499.4 161.489 498.731C161.695 498.049 161.779 497.321 161.737 496.511C161.699 495.736 161.518 495.018 161.222 494.376C160.926 493.734 160.525 493.18 160.038 492.718C159.552 492.256 158.977 491.907 158.325 491.663C157.66 491.428 156.978 491.331 156.245 491.378L155.6 491.421C154.845 491.463 154.14 491.636 153.498 491.932C152.856 492.228 152.302 492.629 151.835 493.136C151.369 493.644 151.024 494.253 150.785 494.939C150.553 495.637 150.465 496.386 150.515 497.209L150.486 497.192Z" fill="#BABABA"/>
<path d="M157.47 461.586C154.37 461.354 152.007 460.418 150.418 458.808C148.821 457.185 148.117 455.066 148.334 452.412C148.538 449.767 149.552 447.771 151.367 446.411C153.191 445.064 155.655 444.496 158.763 444.741L164.109 445.149C167.306 445.39 169.682 446.318 171.237 447.932C172.791 449.546 173.462 451.669 173.258 454.315C173.054 456.96 172.061 458.961 170.28 460.316C168.498 461.672 166.005 462.223 162.807 461.982L157.462 461.573L157.47 461.586ZM170.642 454.128C170.783 452.27 170.243 450.843 169.027 449.824C167.81 448.806 166.027 448.198 163.672 448.021L158.748 447.644C157.657 447.562 156.641 447.595 155.73 447.758C154.81 447.909 154.004 448.204 153.314 448.622C152.625 449.039 152.074 449.584 151.662 450.256C151.249 450.928 151.001 451.711 150.932 452.629C150.86 453.568 150.986 454.395 151.29 455.105C151.602 455.827 152.071 456.428 152.687 456.95C153.304 457.471 154.056 457.867 154.935 458.18C155.814 458.492 156.808 458.675 157.911 458.748L162.836 459.125C165.19 459.302 167.042 458.992 168.399 458.152C169.765 457.325 170.51 455.998 170.651 454.14L170.642 454.128Z" fill="#BABABA"/>
<path d="M175.459 434.179C175.288 435.383 174.962 436.435 174.485 437.368C174.021 438.293 173.443 439.073 172.757 439.689C172.071 440.305 171.323 440.743 170.479 441.008C169.634 441.273 168.766 441.336 167.839 441.2L167.435 441.139C166.614 441.025 165.916 440.793 165.307 440.449C164.706 440.117 164.198 439.705 163.784 439.214C163.365 438.744 163.035 438.215 162.794 437.628C162.561 437.054 162.395 436.472 162.319 435.885L161.914 435.824C161.68 436.324 161.378 436.778 160.988 437.18C160.598 437.583 160.175 437.934 159.689 438.218C159.211 438.515 158.675 438.723 158.092 438.833C157.51 438.944 156.891 438.97 156.23 438.878L155.825 438.817C154.92 438.685 154.117 438.377 153.411 437.914C152.706 437.451 152.132 436.828 151.681 436.088C151.23 435.348 150.923 434.495 150.751 433.517C150.575 432.559 150.572 431.506 150.739 430.377L150.769 430.175C150.931 429.068 151.236 428.066 151.671 427.18C152.105 426.293 152.661 425.563 153.288 424.968C153.936 424.377 154.659 423.955 155.47 423.694C156.289 423.446 157.136 423.379 158.042 423.51L158.446 423.571C159.107 423.664 159.692 423.861 160.225 424.146C160.759 424.431 161.204 424.775 161.589 425.194C161.974 425.614 162.275 426.07 162.534 426.573C162.78 427.084 162.958 427.604 163.04 428.114L163.444 428.175C163.687 427.633 164.002 427.116 164.396 426.638C164.791 426.16 165.261 425.741 165.789 425.411C166.322 425.06 166.93 424.823 167.597 424.675C168.276 424.519 169.006 424.493 169.835 424.62L170.239 424.681C171.166 424.817 171.99 425.129 172.725 425.609C173.447 426.098 174.05 426.737 174.526 427.515C175.003 428.294 175.331 429.206 175.527 430.222C175.711 431.247 175.714 432.356 175.543 433.56L175.451 434.166L175.459 434.179ZM161.376 431.83C161.582 430.403 161.369 429.196 160.751 428.203C160.133 427.209 159.263 426.635 158.114 426.465L157.912 426.434C156.762 426.263 155.758 426.561 154.919 427.332C154.08 428.103 153.556 429.213 153.346 430.661C153.135 432.11 153.323 433.333 153.903 434.297C154.492 435.274 155.361 435.847 156.523 436.01L156.725 436.04C157.854 436.206 158.871 435.9 159.744 435.125C160.616 434.35 161.161 433.245 161.367 431.818L161.376 431.83ZM172.952 433.301C173.172 431.756 172.968 430.453 172.312 429.374C171.657 428.296 170.699 427.672 169.432 427.488L169.23 427.457C167.823 427.255 166.658 427.586 165.756 428.454C164.841 429.329 164.274 430.54 164.05 432.106L164.02 432.308C163.796 433.875 163.995 435.199 164.626 436.294C165.256 437.389 166.272 438.048 167.679 438.249L167.881 438.28C169.148 438.464 170.246 438.141 171.177 437.291C172.109 436.44 172.685 435.243 172.912 433.71L172.973 433.306L172.952 433.301Z" fill="#BABABA"/>
<path d="M167.318 397.184C164.335 396.329 162.206 394.948 160.965 393.037C159.711 391.133 159.466 388.911 160.201 386.353C160.936 383.795 162.328 382.041 164.389 381.083C166.451 380.125 168.984 380.076 171.976 380.943L177.121 382.43C180.197 383.315 182.347 384.7 183.538 386.59C184.728 388.481 184.961 390.711 184.239 393.261C183.504 395.819 182.133 397.577 180.114 398.544C178.094 399.511 175.54 399.556 172.464 398.671L167.318 397.184ZM181.731 392.548C182.251 390.768 182.002 389.258 181.01 388.001C180.026 386.757 178.401 385.808 176.133 385.155L171.378 383.793C170.322 383.488 169.324 383.327 168.397 383.3C167.47 383.274 166.623 383.396 165.867 383.657C165.111 383.919 164.464 384.345 163.917 384.924C163.371 385.502 162.97 386.221 162.713 387.1C162.451 388 162.4 388.835 162.573 389.594C162.733 390.362 163.062 391.055 163.568 391.685C164.062 392.325 164.708 392.863 165.532 393.34C166.334 393.812 167.276 394.192 168.332 394.497L173.086 395.859C175.354 396.512 177.229 396.569 178.732 396.033C180.236 395.498 181.241 394.345 181.752 392.552L181.731 392.548Z" fill="#BABABA"/>
<path d="M164.496 373.789L169.923 358.66L173.876 360.077L184.871 374.777C185.406 375.48 185.862 376.034 186.282 376.449C186.701 376.865 187.154 377.166 187.676 377.35L188.647 377.693L187.697 380.338L186.532 379.923C186.145 379.778 185.784 379.616 185.473 379.42C185.162 379.225 184.852 378.974 184.55 378.682C184.248 378.389 183.955 378.055 183.641 377.661C183.327 377.268 182.972 376.811 182.587 376.282L172.007 362.018L171.62 361.872L167.045 374.675L164.522 373.772L164.496 373.789Z" fill="#BABABA"/>
<path d="M189.558 336.901C186.792 335.465 184.999 333.681 184.159 331.578C183.332 329.466 183.517 327.234 184.748 324.877C185.978 322.519 187.689 321.083 189.904 320.552C192.12 320.02 194.603 320.476 197.356 321.92L202.113 324.39C204.958 325.864 206.772 327.652 207.57 329.747C208.368 331.841 208.153 334.057 206.923 336.414C205.692 338.772 203.998 340.233 201.825 340.773C199.66 341.326 197.147 340.853 194.302 339.379L189.545 336.909L189.558 336.901ZM204.616 335.205C205.48 333.562 205.543 332.028 204.826 330.608C204.109 329.188 202.7 327.933 200.607 326.856L196.229 324.573C195.258 324.066 194.312 323.707 193.403 323.487C192.494 323.267 191.647 323.225 190.846 323.334C190.053 323.456 189.326 323.734 188.675 324.182C188.023 324.629 187.497 325.267 187.067 326.078C186.633 326.91 186.422 327.722 186.426 328.502C186.43 329.281 186.616 330.032 186.974 330.742C187.341 331.465 187.873 332.134 188.569 332.749C189.265 333.363 190.101 333.941 191.084 334.44L195.463 336.722C197.564 337.813 199.394 338.244 200.968 338.008C202.549 337.785 203.751 336.848 204.616 335.205Z" fill="#BABABA"/>
<path d="M204.697 305.057C203.42 304.279 202.161 304.053 200.912 304.366C199.663 304.68 198.621 305.529 197.767 306.911C197.367 307.575 197.106 308.256 197.005 308.959C196.905 309.663 196.952 310.341 197.142 311.017C197.345 311.684 197.674 312.322 198.134 312.91C198.603 313.511 199.199 314.028 199.921 314.462L202.962 316.316L203.179 315.955C202.603 314.97 202.343 313.885 202.375 312.718C202.406 311.551 202.758 310.428 203.417 309.357C203.983 308.42 204.67 307.64 205.465 307.025C206.261 306.41 207.127 305.985 208.06 305.771C209.005 305.548 209.983 305.541 211.01 305.72C212.037 305.898 213.08 306.321 214.134 306.955L214.496 307.171C215.508 307.796 216.33 308.547 216.953 309.41C217.572 310.294 217.996 311.215 218.214 312.236C218.436 313.236 218.452 314.281 218.244 315.346C218.044 316.424 217.642 317.471 217.017 318.483C216.392 319.496 215.658 320.343 214.786 321.008C213.915 321.673 213.006 322.145 212.018 322.413C211.031 322.682 210.019 322.748 208.962 322.607C207.905 322.466 206.887 322.082 205.892 321.482L198.416 316.928C197.345 316.269 196.472 315.497 195.816 314.583C195.159 313.669 194.73 312.714 194.492 311.689C194.274 310.668 194.246 309.631 194.428 308.583C194.611 307.534 195.009 306.508 195.604 305.534C196.199 304.56 196.895 303.737 197.712 303.072C198.516 302.415 199.391 301.947 200.303 301.674C201.223 301.414 202.193 301.339 203.195 301.479C204.197 301.62 205.185 301.988 206.16 302.583L204.655 305.048L204.697 305.057ZM214.867 317.153C215.296 316.451 215.574 315.741 215.7 315.021C215.826 314.301 215.813 313.618 215.652 312.96C215.492 312.301 215.2 311.693 214.756 311.13C214.313 310.567 213.755 310.079 213.074 309.654L212.713 309.437C212.02 309.021 211.339 308.76 210.627 308.646C209.916 308.533 209.229 308.567 208.57 308.728C207.912 308.888 207.291 309.188 206.707 309.628C206.123 310.067 205.635 310.625 205.236 311.289C204.836 311.952 204.575 312.633 204.462 313.345C204.348 314.057 204.37 314.752 204.53 315.41C204.687 316.09 204.966 316.706 205.376 317.273C205.785 317.84 206.301 318.319 206.914 318.698L207.469 319.042C208.111 319.438 208.772 319.694 209.47 319.816C210.157 319.946 210.831 319.92 211.489 319.76C212.148 319.599 212.769 319.299 213.353 318.859C213.937 318.42 214.429 317.841 214.858 317.14L214.867 317.153Z" fill="#BABABA"/>
<path d="M223.899 281.509C221.495 279.545 220.086 277.434 219.69 275.203C219.293 272.971 219.946 270.813 221.617 268.765C223.302 266.71 225.275 265.646 227.539 265.574C229.802 265.502 232.153 266.446 234.565 268.423L238.718 271.801C241.198 273.824 242.628 275.939 242.974 278.149C243.332 280.351 242.672 282.497 240.987 284.552C239.312 286.621 237.359 287.689 235.112 287.786C232.878 287.875 230.519 286.918 228.027 284.903L223.874 281.526L223.899 281.509ZM238.991 282.902C240.153 281.463 240.536 279.973 240.128 278.441C239.71 276.897 238.593 275.395 236.76 273.91L232.925 270.795C232.069 270.104 231.217 269.556 230.376 269.163C229.536 268.771 228.702 268.556 227.902 268.501C227.102 268.446 226.338 268.585 225.616 268.897C224.893 269.209 224.242 269.711 223.656 270.424C223.058 271.146 222.696 271.894 222.548 272.664C222.401 273.435 222.43 274.198 222.633 274.974C222.835 275.751 223.227 276.511 223.775 277.26C224.323 278.009 225.031 278.725 225.887 279.417L229.73 282.544C231.563 284.029 233.274 284.83 234.845 284.923C236.417 285.016 237.815 284.35 238.986 282.923L238.991 282.902Z" fill="#BABABA"/>
<path d="M240.554 266.715L231.272 258.038L241.539 247.053L243.488 248.88L235.146 257.814L241.41 263.677L241.689 263.383C241.515 262.898 241.392 262.379 241.34 261.831C241.28 261.27 241.308 260.705 241.404 260.133C241.512 259.552 241.697 258.975 241.982 258.387C242.268 257.799 242.659 257.232 243.176 256.691C243.922 255.89 244.751 255.271 245.651 254.842C246.551 254.413 247.475 254.186 248.415 254.149C249.355 254.112 250.286 254.282 251.24 254.653C252.186 255.013 253.077 255.591 253.915 256.366L254.376 256.79C255.215 257.566 255.88 258.438 256.372 259.406C256.864 260.373 257.162 261.378 257.262 262.44C257.353 263.49 257.208 264.568 256.831 265.654C256.446 266.726 255.791 267.776 254.85 268.778C253.905 269.801 252.893 270.558 251.867 271.071C250.831 271.571 249.797 271.852 248.761 271.88C247.732 271.921 246.718 271.734 245.725 271.332C244.733 270.931 243.826 270.327 242.971 269.526L242.262 268.865L244.233 266.748L244.787 267.256C246.174 268.562 247.579 269.147 249 269.011C250.421 268.876 251.714 268.188 252.892 266.938C253.524 266.268 253.953 265.566 254.181 264.834C254.421 264.094 254.484 263.361 254.391 262.64C254.298 261.919 254.07 261.214 253.682 260.541C253.293 259.869 252.816 259.255 252.217 258.704L252.07 258.564C251.554 258.085 250.983 257.716 250.365 257.468C249.747 257.22 249.137 257.095 248.5 257.095C247.877 257.088 247.256 257.223 246.652 257.494C246.04 257.752 245.498 258.145 245.019 258.661C244.684 259.009 244.442 259.387 244.276 259.769C244.109 260.152 243.998 260.535 243.945 260.897C243.892 261.259 243.907 261.613 243.973 261.934C244.047 262.267 244.142 262.55 244.285 262.765L240.584 266.732L240.554 266.715Z" fill="#BABABA"/>
<path d="M268.794 234.265C266.835 231.844 265.892 229.5 265.963 227.233C266.034 224.966 267.099 222.991 269.164 221.321C271.23 219.651 273.37 219.005 275.614 219.401C277.858 219.797 279.949 221.203 281.908 223.625L285.286 227.786C287.308 230.275 288.26 232.631 288.172 234.873C288.063 237.11 286.99 239.072 284.924 240.742C282.859 242.412 280.727 243.071 278.521 242.704C276.315 242.338 274.194 240.915 272.181 238.439L268.803 234.278L268.794 234.265ZM283.271 238.702C284.706 237.538 285.383 236.164 285.295 234.566C285.194 232.977 284.416 231.27 282.917 229.437L279.803 225.594C279.112 224.739 278.391 224.031 277.64 223.47C276.889 222.91 276.132 222.535 275.354 222.32C274.575 222.105 273.8 222.088 273.024 222.236C272.256 222.396 271.512 222.758 270.801 223.336C270.077 223.922 269.56 224.572 269.256 225.3C268.953 226.027 268.831 226.781 268.865 227.578C268.919 228.379 269.134 229.201 269.53 230.051C269.925 230.9 270.464 231.746 271.155 232.601L274.269 236.444C275.747 238.273 277.27 239.398 278.806 239.824C280.342 240.249 281.823 239.874 283.271 238.702Z" fill="#BABABA"/>
<path d="M287.066 208.363L291.644 205.148L301.328 218.909L304.366 216.781L305.9 218.972L302.863 221.101L305.468 224.806L303.107 226.471L300.502 222.765L291.398 229.163L289.107 225.905L287.054 208.371L287.066 208.363ZM291.656 225.19L291.882 225.533L298.972 220.552L290.011 207.806L289.668 208.032L291.677 225.194L291.656 225.19Z" fill="#BABABA"/>
<path d="M322.568 197.075C321.116 194.32 320.662 191.835 321.184 189.617C321.706 187.399 323.144 185.688 325.494 184.449C327.844 183.21 330.078 183.012 332.189 183.841C334.3 184.67 336.082 186.462 337.533 189.218L340.023 193.964C341.512 196.804 341.983 199.314 341.44 201.473C340.905 203.645 339.446 205.352 337.101 206.569C334.751 207.808 332.525 208.019 330.426 207.237C328.328 206.454 326.542 204.628 325.053 201.788L322.564 197.042L322.568 197.075ZM335.883 204.279C337.518 203.419 338.461 202.198 338.676 200.619C338.891 199.04 338.454 197.217 337.362 195.117L335.059 190.738C334.546 189.766 333.982 188.937 333.358 188.238C332.734 187.54 332.062 187.018 331.348 186.651C330.634 186.285 329.88 186.108 329.08 186.108C328.292 186.099 327.49 186.318 326.678 186.744C325.854 187.177 325.206 187.713 324.777 188.36C324.348 189.007 324.058 189.726 323.948 190.526C323.838 191.326 323.884 192.169 324.102 193.08C324.321 193.992 324.678 194.921 325.191 195.893L327.493 200.271C328.59 202.351 329.847 203.761 331.267 204.481C332.688 205.201 334.218 205.121 335.866 204.253L335.883 204.279Z" fill="#BABABA"/>
<path d="M348.488 187.314L346.902 183.664L352.069 175.93L351.906 175.546L339.445 180.99L338.371 178.531L353.097 172.105L354.857 176.131L349.682 183.852L349.844 184.237L351.099 183.683C351.931 183.317 352.809 183.103 353.699 183.044C354.601 182.978 355.447 183.075 356.28 183.345C357.105 183.602 357.869 184.045 358.578 184.651C359.287 185.258 359.856 186.066 360.284 187.075L360.53 187.641C360.938 188.592 361.135 189.554 361.121 190.527C361.094 191.509 360.878 192.452 360.478 193.334C360.077 194.217 359.478 195.048 358.724 195.782C357.957 196.523 357.043 197.125 355.97 197.596C354.728 198.141 353.538 198.433 352.388 198.482C351.237 198.53 350.172 198.377 349.192 198.022C348.212 197.667 347.338 197.114 346.588 196.389C345.829 195.652 345.227 194.793 344.798 193.784L344.062 192.086L346.71 190.941L347.364 192.458C347.705 193.252 348.152 193.903 348.685 194.408C349.217 194.912 349.822 195.278 350.478 195.5C351.134 195.723 351.85 195.816 352.596 195.761C353.343 195.706 354.106 195.512 354.854 195.183C355.543 194.875 356.139 194.482 356.643 194.005C357.139 193.514 357.525 192.968 357.782 192.363C358.046 191.77 358.189 191.13 358.184 190.46C358.2 189.795 358.061 189.141 357.782 188.524L357.698 188.342C357.116 187.016 356.261 186.16 355.087 185.787C353.926 185.405 352.712 185.496 351.457 186.049L348.504 187.339L348.488 187.314Z" fill="#BABABA"/>
<path d="M382.533 171.436C381.689 168.444 381.75 165.911 382.709 163.86C383.681 161.8 385.438 160.407 387.987 159.692C390.549 158.968 392.764 159.237 394.671 160.474C396.564 161.719 397.948 163.847 398.791 166.839L400.242 171.997C401.11 175.082 401.058 177.627 400.073 179.64C399.089 181.653 397.328 183.013 394.775 183.749C392.213 184.473 390.002 184.237 388.112 183.026C386.231 181.827 384.852 179.679 383.984 176.594L382.533 171.436ZM394.085 181.238C395.866 180.738 397.026 179.737 397.565 178.236C398.104 176.734 398.052 174.859 397.411 172.588L396.063 167.835C395.765 166.776 395.387 165.843 394.915 165.044C394.456 164.236 393.899 163.584 393.278 163.083C392.657 162.583 391.947 162.25 391.181 162.082C390.402 161.921 389.58 161.972 388.698 162.207C387.791 162.459 387.072 162.86 386.5 163.4C385.941 163.932 385.52 164.592 385.246 165.336C384.973 166.081 384.841 166.931 384.878 167.871C384.907 168.798 385.062 169.806 385.372 170.857L386.72 175.61C387.361 177.881 388.308 179.512 389.542 180.501C390.784 181.502 392.304 181.738 394.085 181.238Z" fill="#BABABA"/>
<path d="M422.128 174.063L422.674 176.688L406.739 180.035L405.888 176.01C405.671 174.934 405.651 173.965 405.841 173.093C406.031 172.222 406.402 171.432 406.933 170.718C407.472 170.018 408.175 169.372 409.042 168.783C409.905 168.215 410.898 167.651 412.035 167.139C413.936 166.269 415.248 165.332 415.948 164.324C416.662 163.308 416.891 162.193 416.624 160.986L416.579 160.779C416.452 160.172 416.227 159.61 415.901 159.061C415.576 158.511 415.153 158.062 414.628 157.68C414.103 157.298 413.477 157.037 412.761 156.89C412.046 156.743 411.228 156.772 410.3 156.965C408.578 157.335 407.347 158.146 406.62 159.389C405.88 160.641 405.703 162.14 406.077 163.895L406.389 165.363L403.558 165.955L403.201 164.28C402.983 163.204 402.939 162.142 403.092 161.076C403.245 160.011 403.588 159.039 404.115 158.128C404.651 157.229 405.385 156.437 406.324 155.763C407.25 155.098 408.399 154.633 409.741 154.349C411.104 154.07 412.343 154.018 413.442 154.222C414.54 154.426 415.495 154.798 416.305 155.337C417.116 155.877 417.778 156.551 418.283 157.346C418.802 158.133 419.143 158.981 419.319 159.884L419.446 160.492C419.824 162.281 419.583 163.931 418.736 165.435C417.881 166.927 416.277 168.22 413.932 169.273C411.887 170.202 410.433 171.142 409.593 172.132C408.745 173.109 408.481 174.338 408.789 175.828L408.998 176.836L422.102 174.08L422.128 174.063Z" fill="#BABABA"/>
<path d="M446.414 158.537C446.186 155.43 446.769 152.972 448.132 151.146C449.503 149.333 451.497 148.329 454.157 148.141C456.805 147.962 458.942 148.664 460.53 150.275C462.14 151.889 463.05 154.237 463.264 157.352L463.635 162.694C463.867 165.889 463.288 168.381 461.917 170.139C460.555 171.91 458.544 172.889 455.896 173.069C453.249 173.248 451.12 172.558 449.51 170.998C447.913 169.43 446.999 167.049 446.768 163.853L446.397 158.512L446.414 158.537ZM455.712 170.497C457.559 170.372 458.907 169.63 459.736 168.265C460.574 166.912 460.9 165.06 460.749 162.703L460.405 157.762C460.322 156.671 460.142 155.679 459.852 154.797C459.562 153.915 459.157 153.162 458.638 152.54C458.119 151.918 457.502 151.451 456.788 151.139C456.073 150.827 455.243 150.701 454.333 150.755C453.397 150.825 452.603 151.057 451.935 151.479C451.28 151.893 450.729 152.437 450.312 153.131C449.887 153.811 449.6 154.618 449.435 155.528C449.27 156.437 449.226 157.448 449.296 158.549L449.64 163.489C449.804 165.838 450.401 167.628 451.41 168.855C452.419 170.083 453.853 170.63 455.712 170.497Z" fill="#BABABA"/>
<path d="M475.273 169.201L475.236 149.12L474.819 149.122L470.888 158.152L468.035 158.158L468.032 157.96L472.512 147.858L478.108 147.846L478.147 169.2L484.949 169.195L484.947 171.871L468.465 171.903L468.467 169.227L475.269 169.222L475.273 169.201Z" fill="#BABABA"/>
</svg>
