<svg width="955" height="955" viewBox="0 0 955 955" fill="none" xmlns="http://www.w3.org/2000/svg">
<path d="M719.44 317.862C762.036 382.521 776.905 459.916 761.314 535.761C745.711 611.614 701.505 676.835 636.833 719.44C572.161 762.044 494.779 776.905 418.934 761.314C343.08 745.711 277.86 701.505 235.255 636.833C192.65 572.161 177.79 494.779 193.38 418.934C208.984 343.08 253.19 277.86 317.862 235.255C382.534 192.65 459.916 177.79 535.761 193.38C611.614 208.984 676.835 253.19 719.44 317.862ZM765.117 287.77C660.415 128.837 446.704 84.8751 287.77 189.577C128.837 294.279 84.8751 507.991 189.577 666.924C294.279 825.858 507.991 869.819 666.924 765.117C825.858 660.415 869.82 446.703 765.117 287.77Z" fill="#3A3A3A"/>
</svg>
